<svg version="1" xmlns="http://www.w3.org/2000/svg" width="400" height="400" viewBox="0 0 300.000000 300.000000"><path class="node" d="M211.2 11.2c-3.9 1.3-11.8 8.1-12.7 10.8-.5 1.6-1.5 2-5.4 2-3.3 0-6.6.9-10.4 2.8-3.6 1.8-6 2.5-6.6 1.9-1.2-1.2-13.9-2.1-18.4-1.3-5.3 1-12.2 6.1-15.8 11.8-2.9 4.4-3.3 6.1-3.7 13.2-.3 6 0 9.1 1.2 12 .9 2.1 1.6 4 1.6 4.2 0 .2-1.5 1.1-3.2 2-10.6 5.3-15.2 15.6-11.3 25.1 2.9 6.9 9.1 11.6 17.6 13.4 5.3 1.2 5.4 1.2 6.4 7.1 1.6 10.1 15 16.8 27.4 13.8 5-1.2 5.1-1.2 9.2 2.4 6.6 5.6 18.2 7 26 3 1.5-.7 4.1-2.5 5.8-4 3-2.5 3.2-2.6 5.7-.9 4.2 2.8 13.4 5.5 18.4 5.5 5.4 0 14.9-3 20-6.4 5.5-3.6 9-9.5 9.7-15.9.5-5.1.9-5.7 3.8-7.1 8-3.8 13.3-13.7 12.1-22.5-1.1-8.2-5.3-13.3-14.5-17.9-2.3-1.1-3.8-2.8-4.6-5.1-.6-1.8-2.5-5-4.1-7-2.8-3.3-3.1-4.1-2.6-9.1.7-9.2-4.1-15.2-14.1-17.5-4.1-.9-5.1-1.7-8-6-4.6-7.1-10.9-10.7-19.4-11.1-3.8-.2-8.3.2-10.1.8zm7.8 131c-1.1 1.8-3.3 6.6-4.8 10.5-1.5 4-3 7.3-3.4 7.3-.3 0-1.1-1.3-1.6-2.9-.5-1.5-2.2-4.7-3.6-7-2.2-3.5-3.1-4.1-6.1-4.1-1.9 0-4.6-.5-6-1.2-1.4-.6-2.7-.9-3-.6-.3.2.4 3.1 1.5 6.2 2.8 8.3 4.3 21.2 3.6 32.4-.3 5.3-.9 22.1-1.2 37.3l-.6 27.7 4 .7c2.2.3 7.5.1 11.8-.7 4.4-.7 12.7-1.3 18.7-1.3 5.9 0 10.7-.1 10.7-.2s-1.2-2.4-2.8-5c-9.1-15.9-12.9-36.2-11.8-62.8.4-8.3 1.5-19.7 2.5-25.5 2-11.4 1.7-12.3-3.1-13.5-2.3-.6-3-.2-4.8 2.7zM15.5 185.1c-4.6 2.6-4.5 1.7-4.5 54.6V290h20.5v-17.5l8.3-.3 8.2-.3V290h21v-18h17v18h19.9l.3-8.8.3-8.7 8.3-.3 8.2-.3V290h21v-18h16v18h21v-50.5c0-48.9-.1-50.6-2-52.5-3.9-3.9-12.4-3.9-16.6.1-2.3 2.1-2.4 2.9-2.4 15.1V215h-16v-12.4c0-11.5-.2-12.7-2.2-15.1-3.9-4.4-12.1-4.7-16.6-.5-2.1 1.9-2.2 2.9-2.2 15.1v13l-8.2-.3-8.3-.3-.2-11.5c-.2-6.3-.5-12.5-.8-13.7-1.2-4.9-10.5-6.8-16.2-3.3l-3.2 1.9-.3 13.3-.3 13.3-8.2.3-8.3.3v-12.8c0-7-.4-13.3-.8-13.9-3.4-4.9-12.3-5.9-17.1-1.8l-3.1 2.6v25.9l-8.2-.3-8.3-.3-.3-13.1c-.2-11.6-.5-13.4-2.2-14.9-2.4-2.2-10.7-3-13.5-1.4zM48 243v19.1l-8.2-.3-8.3-.3-.3-16.5c-.1-9.1 0-17.5.3-18.8.5-2 1.1-2.2 8.5-2.2h8v19zm37.5 0v18.5l-8.2.3-8.3.3v-38.2l8.3.3 8.2.3V243zm37.5 0v19.1l-8.2-.3-8.3-.3-.3-16.5c-.1-9.1 0-17.5.3-18.8.5-2 1.1-2.2 8.5-2.2h8v19zm37 0v19h-16v-38h16v19z" fill="#669C32"/></svg>