<svg version="1" xmlns="http://www.w3.org/2000/svg" width="400" height="400" viewBox="0 0 300.000000 300.000000"><path fill="#669C32" class="node" d="M138.4 7.5C122.3 11 112 20.4 106 36.9l-1.6 4.6-7.4.7c-9.5 1-15.2 2.9-21.6 7.3-10 6.9-16.8 18.6-17.9 30.9-.7 7.1-.8 7.4-5.4 11.3C42.5 100 38 110 38 122.9c0 11.9 2.8 19.2 11.2 28.8 2.7 3.1 3.8 5.3 3.8 7.6 0 3.8 3.1 15.1 5.3 19.3 4.3 8.2 14.7 16.6 24.4 19.7 7.3 2.4 18.5 2.2 26.1-.4l6.2-2.1 5.5 3.6c6.7 4.5 13.3 7.5 16.3 7.6 1.4 0 2.6.8 3.1 2.3.5 1.3 1.2 11 1.6 21.7.5 15.4.3 21.4-.9 28.5-2.7 15.4-4.5 24.9-5.6 27.9-.5 1.6-1 4-1 5.2v2.4h24c23.6 0 24 0 24-2.1 0-1.1-1.4-8.9-3.2-17.2-3.5-16.6-4.2-32.5-2-42.2.6-2.8 1.4-6.1 1.7-7.5.2-1.4 4.5-6.7 9.3-11.9l8.9-9.4 2.6 1.7c1.4 1 5.4 2.6 8.9 3.7 22.6 6.8 45.9-5.7 52.4-28.3 1.8-6 2.6-7.5 5-8.7 9.6-4.7 18.8-14.9 22.2-24.5 2.1-6.1 2.6-14.8 1.3-21.8-1.2-5.9-6.1-16.5-8.4-17.9-.6-.5-.7-2.1-.1-4.5.4-2.2.8-8.2.9-13.4 0-8.6-.3-10.1-3.2-16.2-5.7-12.1-15.6-20.5-27.6-23.4-5.5-1.4-6.8-2.1-7.5-4.3-1.5-4.1-7.4-11.7-11.7-15.1-6.1-4.9-12.3-7.6-20.2-9-8.1-1.3-15.1-.4-23.7 3.3-4.7 2-4.8 2-5.9.1-2-3.6-10.1-11.6-14.2-13.9-4.2-2.5-17.5-6.6-21-6.4-1.1 0-4.7.7-8.1 1.4zm42 173.5c1.1 4.1 3.5 9.2 7.7 15.8 1.3 2.1 1.2 2.5-1.1 4.3-4.6 3.6-12.5 7.9-14.7 7.9-3.5 0-4.6-3.4-3.9-11.7.8-9.9 3.6-18.9 6.1-20.2 3.4-1.7 4.7-.8 5.9 3.9zm-35.3-2.4c2.4.8 7.3 1.7 10.9 1.9l6.5.4-.2 4.3c-.3 5-2.8 12.1-4.8 13.8-2.9 2.4-5.9.2-11.1-7.7-4.4-6.9-7.4-12.4-7.4-13.8 0-.8 1.6-.5 6.1 1.1zm-7.8 7.5c2 4.4 3.7 8.5 3.7 9 0 2.4-8.4-.1-14.1-4.2l-3-2.1 2.4-2.7c1.3-1.4 3.2-3.8 4.2-5.4.9-1.5 2-2.7 2.4-2.7.3 0 2.3 3.6 4.4 8.1z"/></svg>