<svg id="Слой_1" xmlns="http://www.w3.org/2000/svg" viewBox="0 0 103.1 81.6"><style>.st0{fill:none;stroke:#fff;stroke-width:4;stroke-miterlimit:10}</style><path class="st0" d="M100.6 36.9s-2.5 1-4.2.3c-1.9-.8-4.8-9.9-8.6-6.6-1.3 1.1-.9 2.7.3 4.2 1.4 1.8 1.8 2.3 1.8 3.4 0 .6 0 1.5-.4 1.9-.5 1.2-3.1 1-4.3.6-2.1-.7-3.3-7.9-5.2-7.6-1 .2-4.7 1.2-4.2 3 .4 1.5 2.8 2.8 3.3 4.4.4 1.1.5 2.7-.5 3.4-.6.4-3.4.5-4.3.3-1.3-.3-1.8-1.9-2.1-3-.1-.4-.5-.8-.9-.8-1.3-.1-3.7-.2-4.1.2-.7.7.7 9.4 1.5 10 7.1 5.3 24.6 10.9 24.6 24.1 0 0-1.8 5-4 5-3.5 0-9.7-8.5-9.7-8.5s2.3 8.5-1.6 8.5c-3.1 0-7.7-8-7.7-8s.9 8-2.6 8c-2.7 0-4.5-1.5-4.9-3.4-.4-2-4.6-17.8-4.6-17.8s-6.2.2-10.2-.7c-3.9-.9-10.5-4.1-17-9.9-9.2-8.5-11.5-15.9-11.5-20.7 0-4.9-.4-8.4-.4-9.7 0-3.4-12.1-6.8-12.1-6.8v-.2l8.9-1.3S19.3 2 26.4 2c7.2 0 10.3 3.4 12.1 7.2 3.1 6.4 7.6 7.3 10.8 7.3 3.7 0 5.9-2.5 5.9-5.8 0-5.6 2.5-8.3 8-8.6 14.5-.6 35.9 27.5 37.2 30.7 1.4 2.1.2 4.1.2 4.1zM49.9 63.3c-1.3-.7-2.6-.7-3.6-1.4-6.3-2.1-14.7-4.4-21.1-10C15.2 43 12.1 36.7 12 30.4c0 0-8.1 1.6-9.5 6.7-2 7.3 1.7 14.1 12.8 18.3 8.4 3.2 8 13 8 16.3 0 4.8 1.3 7.7 4 7.7 3.8 0 3.4-8.3 3.4-8.3s3.9 6.4 7.8 5c1.4-.3 1.9-1.3 1.9-2.8 0-2.9-1.2-5.5-1.2-5.5 5.2 3 9.5 1.9 10.9.9 1.5-1.3.8-4.9-.2-5.4z"/></svg>