<svg xmlns="http://www.w3.org/2000/svg" viewBox="0 0 61.46 81.95"><defs><style>.cls-1{fill:#2c2860}</style></defs><title>Ресурс 1</title><g id="Слой_2" data-name="Слой 2"><g id="Calque_1" data-name="Calque 1"><g id="PLANET"><path class="cls-1" d="M31.23 11.8a5.9 5.9 0 1 1 5.9-5.9 5.91 5.91 0 0 1-5.9 5.9zm0-8.16A2.26 2.26 0 1 0 33.5 5.9a2.27 2.27 0 0 0-2.27-2.26zm-1.81 69.21A25.14 25.14 0 1 1 54.56 47.7a25.17 25.17 0 0 1-25.14 25.15zm0-44.84A19.69 19.69 0 1 0 49.11 47.7 19.71 19.71 0 0 0 29.42 28z"/><path class="cls-1" d="M59.72 17.86c-3.61-3.34-12.17-.44-22.07 6.65A8 8 0 0 1 41 26.23c6.51-4.4 11.79-6.16 14-4.11 4 3.67-2.86 18.4-15.94 32.55S11.6 77 7.63 73.36c-2-1.86-1.07-6.49 2-12.43a8.28 8.28 0 0 1-2.74-3.3C.41 68.23-1.93 77.18 1.73 80.56c5.62 5.19 23.15-4.63 39.16-21.95s24.44-35.55 18.83-40.75z"/></g></g></g></svg>