<svg xmlns="http://www.w3.org/2000/svg" viewBox="0 0 70 70"><g fill="none" stroke="#fff"><path d="M19.762 41.973v2.312a3.087 3.087 0 0 0 3.088 3.089h24.297a3.09 3.09 0 0 0 3.092-3.089v-2.312m.025-9.096c0-5.058-3.383-10.25-15.266-10.25-11.995 0-15.265 5.192-15.265 10.25" stroke-width="1.4" stroke-linecap="round" stroke-linejoin="round" stroke-miterlimit="1"/><circle cx="28.083" cy="30.84" r="1.089"/><circle cx="32.416" cy="26.441" r="1.086"/><path d="M36.083 30.84a1.086 1.086 0 0 1-2.171 0c0-.6.487-1.082 1.086-1.082.604 0 1.085.482 1.085 1.082zm3.22-4.313c0 .6-.484 1.085-1.089 1.085a1.085 1.085 0 0 1-1.085-1.085c0-.6.486-1.09 1.085-1.09a1.09 1.09 0 0 1 1.089 1.09z"/><circle cx="41.915" cy="30.84" r="1.088"/><path stroke-width="1.4" stroke-linecap="round" stroke-linejoin="round" stroke-miterlimit="1" d="M18.954 39.65h32.092M17.5 34.97c1.747 0 1.747 1.4 3.495 1.4s1.748-1.4 3.497-1.4c1.751 0 1.751 1.4 3.5 1.4 1.751 0 1.751-1.4 3.499-1.4 1.748 0 1.748 1.4 3.496 1.4 1.749 0 1.749-1.4 3.499-1.4 1.751 0 1.751 1.4 3.5 1.4 1.751 0 1.751-1.4 3.501-1.4 1.753 0 1.753 1.4 3.505 1.4 1.753 0 1.753-1.4 3.508-1.4"/></g></svg>