<svg id="svg2" xmlns="http://www.w3.org/2000/svg" viewBox="-447 233.1 63.9 95.9"><style>.st0{fill:#fff}</style><g id="layer1" transform="translate(-364.286 -414.66)"><path id="path4147" class="st0" d="M-56.8 735.9c-17.1-27.4-25.9-46.8-25.9-57.2 0-12.5 9.9-25.5 22.3-29.4 16.8-5.3 34.9 4.1 40.1 20.7 2.8 9 1.8 15.8-4.3 29.7-6.3 14.3-23.9 44-26.1 44-.7 0-3.3-3.4-6.1-7.8zm12.5-8.4c7.3-12 17.5-32.1 19.6-38.6 1-3 1.5-6.9 1.5-10.5-.1-10.4-6.2-19.5-16.3-24.2-6.4-3-16.1-3-22.6 0-6.3 2.9-10.7 7.2-13.6 13.2-3.2 6.4-3.5 13.9-1.1 21.4 2.9 9.1 24.1 48.4 26 48.4.3.1 3.2-4.3 6.5-9.7zm-10.8-34.6c-4.1-1.5-8.1-5.8-9.2-10-2.6-9.7 7.2-19.4 17-16.8 4.4 1.2 9 5.8 10.2 10.2 2.7 10.3-8 20.2-18 16.6zm11.3-6.4c2.4-2.4 2.7-3.2 2.7-6.9s-.3-4.5-2.7-6.9c-2.4-2.4-3.2-2.7-6.9-2.7s-4.5.3-6.9 2.7c-2.4 2.4-2.7 3.2-2.7 6.9s.3 4.5 2.7 6.9c2.4 2.4 3.2 2.7 6.9 2.7s4.5-.3 6.9-2.7z"/></g></svg>