<svg id="svg2" xmlns="http://www.w3.org/2000/svg" viewBox="-455 258.7 48 45.3"><style>.st0{fill:#fff}</style><g id="layer1" transform="translate(-616.622 -913.848)"><path id="path4147" class="st0" d="M165.7 1216.7v-21.8H164c-1 0-1.9-.1-2-.3-.5-.5-.4-8.8.1-9.4.9-1.2 1.5-1.3 5.4-1.3h3.7l-.9-.9c-2.3-2.6-2.8-6.3-1.1-8.3 1.2-1.4 2.2-1.9 4.5-1.9 2 .2 2.2.3 4 1.2 1.5.7 2.4 1.4 4.2 3.2 1.3 1.3 2.7 3 3.2 3.8.5.8 1 1.5 1.1 1.5.1 0 .6-.7 1.2-1.6.6-.9 2-2.6 3.2-3.8 3.7-3.6 6.9-4.8 10.3-3.9 2.3.7 3.5 2.5 3.2 5.3-.1 1.7-.8 3.1-2 4.5l-.9.9h3.6c5 0 4.7-.4 4.8 5.6.1 3.4 0 4.8-.2 5.1-.2.2-.8.3-1.6.3h-1.3v21.8c-.2.9-.4.9-1.2 1.2h-38.4c-.9-.1-1.1-.5-1.2-1.2zm18.9-11.4l.1-10.5h-17v10.4c0 5.7.1 10.5.2 10.6.1.1 3.9.1 8.5.1l8.3-.1-.1-10.5zm19.9 0l.1-10.5h-18v10.4c0 5.7.1 10.5.2 10.6s4.1.1 8.9.1l8.8-.1v-10.5zm-19.9-16.1l.1-3.5h-10.2c-8.9 0-10.2 0-10.6.4-.3.3-.4 1-.4 3.4 0 1.7.1 3.1.2 3.2.1.1 4.8.1 10.5.1l10.3-.1.1-3.5zm23 .1v-3.5l-10.5-.1-10.5-.1v3.4c0 1.9.1 3.5.2 3.6s4.8.1 10.5.1l10.3-.1v-3.3zm-23.4-5.7c0-.1-.4-.8-.9-1.6-2.2-3.3-5.2-5.9-7.8-6.8-1.1-.4-1.5-.4-2.7-.2-1.5.3-2.1.7-2.5 1.8-.6 1.7.5 4.2 2.4 5.5 1.9 1.3 3.1 1.6 7.5 1.6 2.2-.1 4-.2 4-.3zm14-.6c2.8-1.3 4.5-4.1 3.8-6.3-.4-1.3-1.4-1.9-3.3-1.9-2 0-4.1 1.1-6.7 3.6-1.7 1.7-3.9 4.6-3.9 5.2 0 .1 1.8.2 4.4.1 4.1 0 4.4-.1 5.7-.7z"/></g></svg>