<svg id="svg2" xmlns="http://www.w3.org/2000/svg" viewBox="-274 77 409.6 409"><style>.st0{fill:#fff}</style><g id="layer1" transform="translate(-113.257 -302.577)"><path id="path4147" class="st0" d="M-104.7 787.4c-5.1-1.8-10-5.4-12.6-9.3-4.9-7.4-4.6-.5-4.8-94.6l-.2-86.4-5.5-.9c-15.2-2.4-27.7-13.7-31.6-28.7-1.7-6.4-1.7-24.8 0-31.2.7-2.6 2.2-6.6 3.4-8.8 2.4-4.5 39.6-54.4 43.8-58.8l2.7-2.8.2-34 .2-34 2.7-5.1c3-5.5 6.3-8.7 12-11.5l3.6-1.8h269.7l5 2.7c5.6 3 8 5.5 11.2 11.6l2.2 4.1.2 34 .2 34 2.7 2.8c4.2 4.4 41.4 54.3 43.8 58.8 1.2 2.2 2.7 6.2 3.4 8.8 1.7 6.4 1.7 24.8 0 31.2-3.9 15-16.4 26.3-31.6 28.7l-5.5.9-.2 86.4-.2 86.4-2.7 5.1c-3 5.5-6.3 8.7-12 11.5l-3.6 1.8-146.4.2c-131.8.2-146.9.1-150.1-1.1zm91.4-90.6c.2-65.6.2-66.4 1.9-68.6.9-1.2 2.6-3 3.9-3.9 2.2-1.6 2.9-1.6 54.9-1.6s52.7 0 54.9 1.6c1.2.9 3 2.6 3.9 3.9 1.6 2.2 1.7 3 1.9 68.6l.2 66.3h76.8V596.8H-96.7v166.4h83.2l.2-66.4zm108.6 2.4v-64h-96v128h96v-64zM-73.2 526.7c13.9-24.4 25.3-44.6 25.3-44.8 0-.2-8.7-.4-19.4-.4-16.9 0-19.8.2-22.2 1.4-2.1 1-7.9 8.1-23.1 28.2-11.1 14.7-20.8 28-21.4 29.4-1.4 3.1-1.6 19-.3 22.4.5 1.2 1.6 3.1 2.6 4.2 3.2 3.5 5.7 4 19.8 4.1h13.3l25.4-44.5zm55.3 1.3c6.7-23.5 12.4-43.6 12.7-44.6l.5-1.8-14.1.2-14.1.2-24.7 43.2C-71.2 549-82.7 569-83.1 569.8c-.8 1.3.6 1.4 26.2 1.2l26.9-.2 12.1-42.8zm55.6-1.7v-44.8l-14.6.2-14.6.3-12.6 44c-6.9 24.2-12.6 44.3-12.6 44.6 0 .3 12.2.6 27.2.6h27.2v-44.9zm67.2 44.3c0-.3-5.7-20.4-12.6-44.6l-12.6-44-14.6-.2-14.6-.2v89.6h27.2c14.9 0 27.2-.3 27.2-.6zm41.5-44.2l-25.6-44.8h-14c-13 0-14 .1-13.6 1.4.2.8 5.8 20.5 12.5 43.8 6.6 23.3 12.2 42.9 12.4 43.4.3.8 6.4 1 27.1 1H172l-25.6-44.8zm71 42.7c4.9-3.7 5.5-5.2 5.8-15.9.2-7.5 0-10.5-.9-12.5-.7-1.5-10.3-14.8-21.5-29.5-15.2-20.1-21-27.2-23.1-28.2-2.4-1.2-5.3-1.4-22.2-1.4-10.7 0-19.4.2-19.4.5s11.4 20.5 25.3 44.8l25.3 44.4 14.3-.3c12.8-.2 14.4-.4 16.4-1.9zm-45.3-138.7v-25.6h-256V456h256v-25.6z"/></g></svg>