<svg id="svg2" xmlns="http://www.w3.org/2000/svg" viewBox="-414 217.9 130.4 127.1"><style>.st0{fill:#fff}</style><g id="layer1" transform="translate(-307.179 -277.065)"><path id="path4160" class="st0" d="M-41 620.8c-2.6-1.4-4.8-5.3-4.6-8.2.1-1.2-.4-3.5-1.2-5.2-.8-1.7-1.3-4.2-1.2-5.6.1-1.7-.6-3.8-2.3-6.4-1.4-2.2-2.8-5.2-3-6.8-.3-1.6-1.4-3.8-2.5-4.9-1.8-1.9-2.3-2-5.5-1.4-7.8 1.5-16.5-1.9-22.7-8.6-3.8-4.1-5.4-7.6-6.8-14.8-.2-1.2-1.3-2.5-2.4-3-4-1.8-9-7.3-11.3-12.4-6.9-15.1 1.6-31.6 18.4-35.9 2.7-.7 4-1.5 4.8-3.1 3-5.8 9.5-9.6 16.4-9.6 5.5 0 10 2 13.4 5.8 1.8 2.1 3.2 2.9 4.8 2.9 1.2 0 3.4.3 4.9.8 2.4.7 2.9.6 4.2-1.1 2.4-3.1 8.3-5.5 13.4-5.5 5.6 0 9.7 1.9 13.9 6.3 2.9 3.1 3.4 3.3 6.5 3 6.9-.8 17.1 3.8 21.6 9.7 7.9 10.4 7.4 24.2-1.2 33.7-2.7 3-3.8 5-4.2 7.5-1 6.3-5.4 13.1-10.8 16.5-3.7 2.3-10.1 4.5-13.2 4.5-1.8 0-3.2.8-5.5 3.3-1.7 1.8-3 3.7-3 4.2 0 2.6-2 7.3-4 9.6-1.9 2.2-2.2 3.1-1.9 5.4.3 1.8-.1 3.9-.9 5.9-.8 1.7-1.3 4.1-1.2 5.3.4 4.6-4.3 9.5-8.9 9.4-1-.1-2.8-.6-4-1.3zm7.1-5.1c1.3-1.4 1.3-2 .5-4.1-.8-2.2-.7-2.7 1-4.8 2.3-2.7 2.4-4.1.8-7.2-1.1-2.1-1-2.3 1.7-4.3 3.1-2.4 5-6.2 5-10 0-1.8.7-3.1 2.4-4.5 1.3-1.1 3-3 3.7-4.2 1.2-2 1.9-2.3 6.7-2.7 6.5-.5 10.6-2.5 14.7-7 3.6-4 5.3-7.7 5.3-11.7 0-2.5.6-3.5 3.7-6.5 11.4-10.9 8.8-27.9-5.2-34.8-3.8-1.9-10.3-2.4-14.6-1.2-2 .5-2.3.3-3.3-2-1.4-3.4-5.4-6.7-9.4-7.8-4.8-1.3-9.2.2-13.4 4.6l-3.5 3.6-3.2-1.3c-1.7-.7-4.9-1.3-7-1.3-3.5 0-4-.2-5.8-2.9-6.2-9.3-21.7-6.9-24.3 3.8-.5 1.9-1 2.2-4.9 2.6-22.3 2.6-26.1 32.2-5.3 40.9 2.4 1 2.6 1.4 2.6 4.9 0 10.6 9.2 19.5 20.2 19.5 2.7 0 6-.4 7.2-.8 2.1-.8 2.5-.6 5.8 2.9 2.3 2.5 3.5 4.5 3.5 6 .1 3.6 2.1 7.4 5.1 9.7 2.7 2.1 2.8 2.2 1.7 4.3-1.6 3-1.4 4.5.8 7.2 1.8 2.1 1.9 2.6 1 4.8-.8 2.1-.7 2.7.5 4.1.8.9 2.1 1.6 2.8 1.6s2.3-.5 3.2-1.4z"/></g></svg>