<svg xmlns="http://www.w3.org/2000/svg" viewBox="0 0 1893.7376 1451.6183" height="1548.393" width="2019.987"><path d="M686.438 1449.514c-.356-2.2-.942-6.25-1.303-9-.862-6.557-2.875-10.35-6.158-11.599-1.466-.557-6.732-1.57-11.702-2.25l-9.037-1.236 9.376-1.247c14.963-1.99 16.183-3.17 18.085-17.49.571-4.302 1.087-8.127 1.146-8.5.059-.373.722 3.546 1.474 8.708 1.393 9.57 2.938 13.251 6.316 15.06 1.043.558 6.33 1.57 11.75 2.249l9.853 1.234-9.717 1.233c-5.345.678-10.632 1.722-11.75 2.32-3.536 1.893-5.048 5.476-6.386 15.132-1.17 8.445-1.365 8.985-1.947 5.386zm5.87-22.783l2.53-1.325-2.44-1.306c-1.342-.718-3-2.35-3.683-3.627l-1.242-2.32-3.236 3.43c-1.78 1.887-3.857 3.433-4.617 3.435-.76 0 .052.878 1.804 1.946 1.752 1.069 3.723 2.947 4.38 4.173l1.193 2.23 1.391-2.655c.765-1.46 2.53-3.252 3.92-3.98zm1012.884 9.829c-2.082-2.082-2.502-3.22-1.97-5.34.372-1.482 1.145-3.26 1.718-3.95 1.466-1.766 7.346-1.564 9.226.316 1.88 1.88 2.081 7.76.316 9.225-.69.574-2.468 1.347-3.95 1.719-2.12.532-3.258.112-5.34-1.97zm8.045-1.905c2.954-4.507-1.578-9.13-6.066-6.189-2.838 1.86-3.103 4.15-.778 6.72 2.266 2.504 4.994 2.293 6.844-.53zm-1429.277.803c-2.671-1.871-3.041-7.482-.651-9.872 1.633-1.633 6.117-2.083 8.029-.806 1.328.887 3.4 4.673 3.4 6.214 0 1.782-4.74 6.02-6.732 6.02-1.003 0-2.824-.7-4.046-1.556zm7.281-2.448c2.673-2.953.682-6.996-3.447-6.996-4.087 0-5.829 3.173-3.604 6.567 1.936 2.956 4.617 3.12 7.051.43zm-265.503-3.996c-2.556-2.555-2.534-5.052.073-8.365 3.779-4.804 10.927-2.34 10.927 3.767 0 6.025-6.751 8.847-11 4.598zm7.8-1.2c1.657-1.658 1.503-5.303-.287-6.789-3.778-3.135-9.637 2.725-6.503 6.502 1.487 1.791 5.132 1.945 6.79.287zm1148.837-2.306c-2.68-2.68-2.986-5.549-.893-8.364 2.387-3.209 5.56-3.815 8.813-1.684 3.028 1.984 3.364 7.41.614 9.9-2.282 2.064-6.544 2.138-8.534.148zm8.026-3.1c1.218-1.846 1.16-2.39-.468-4.4-3.627-4.48-9.916-.078-7.183 5.028 1.43 2.674 5.704 2.323 7.65-.628zm-982.6 2.183c-1.552-1.87-.567-3.577 2.065-3.577 1.495 0 1.929.557 1.691 2.172-.4 2.714-2.132 3.362-3.755 1.405zm833.3-3.07c-.346-.903-.15-2.12.437-2.707 1.523-1.523 4.41-.13 4.012 1.936-.443 2.302-3.648 2.857-4.448.771zm209.324-.153c-1.54-1.54-.647-4.354 1.382-4.354 1.556 0 1.99.54 1.75 2.172-.332 2.255-1.94 3.375-3.132 2.182zm-491.687-7.354c-4.105-4.104-1.345-11 4.401-11 1.916 0 3.98.764 4.944 1.829 3.642 4.024.542 11.171-4.845 11.171-1.375 0-3.4-.9-4.5-2zm7.8-1.2c2.805-2.805.691-7.8-3.3-7.8-2.729 0-4.5 1.831-4.5 4.65 0 3.6 5.235 5.715 7.8 3.15zm-431.8-11.087c-3.122-1.571-4.002-7.568-1.482-10.088 2.063-2.064 7.837-2.107 9.526-.071 2.095 2.524 1.58 7.522-.989 9.602-2.675 2.167-3.696 2.247-7.055.557zm6.435-2.641c3.256-3.598-1.073-9.407-5.318-7.135-2.759 1.477-3.373 4.024-1.617 6.704 1.874 2.86 4.584 3.029 6.935.431zm1176.231.262c-1.443-1.443-.625-4.334 1.227-4.334 2.286 0 3.382 2.325 1.829 3.878-1.284 1.284-2.105 1.407-3.056.456zm-886.076-12.188c-.993-1.607.552-4.265 2.285-3.931 2.131.41 2.104 4.165-.033 4.577-.91.175-1.925-.115-2.253-.646zm779.774-.639c-.347-.903-.15-2.12.436-2.707 1.523-1.523 4.41-.13 4.012 1.936-.443 2.302-3.648 2.857-4.448.771zm-740.663-21.139c-.386-.386-.701-1.557-.701-2.604 0-1.401.593-1.819 2.25-1.583 1.47.209 2.25 1.007 2.25 2.306 0 1.983-2.473 3.208-3.8 1.881zm-410.637-2.79c-1.553-1.871-.568-3.578 2.064-3.578 1.495 0 1.929.557 1.691 2.172-.4 2.714-2.132 3.362-3.755 1.405zm1079.936-.578c-2.556-2.555-2.534-5.052.073-8.365 3.779-4.804 10.927-2.34 10.927 3.767 0 6.025-6.751 8.847-11 4.598zm8.663-2.606c1.218-1.846 1.16-2.39-.468-4.4-3.627-4.48-9.916-.078-7.184 5.028 1.431 2.674 5.704 2.323 7.652-.628zm-447.163 2.607c-137.787-8.902-266.076-58.946-371.5-144.918-40.39-32.938-79.779-74.133-110.991-116.083-68.667-92.288-111.46-200.92-123.895-314.5-1.084-9.9-2.273-20.475-2.643-23.5-1.01-8.26-1.383-85.6-.446-92.5.449-3.3 1.325-11.85 1.948-19 4.17-47.88 15.441-100.305 31.97-148.711 10.341-30.283 19.448-51.734 35.146-82.789 55.736-110.259 141.366-201.597 249.41-266.038 18.12-10.806 55.778-29.846 75.5-38.172 110.463-46.63 230.502-61.98 349.5-44.69 95.624 13.893 188.587 50.074 269 104.692 69.318 47.082 126.325 104.262 174.929 175.458 4.787 7.013 8.862 12.75 9.056 12.75.194 0 5.33-3.363 11.412-7.474 26.343-17.802 56.983-29.694 90.604-35.162 15.329-2.494 49.54-2.518 65.321-.047 83.417 13.064 151.371 70.122 177.674 149.183 21.747 65.367 12.264 136.48-25.803 193.5-7.007 10.496-17.458 23.436-24.57 30.422-3.315 3.257-5.79 6.306-5.5 6.775.29.47.14.73-.33.578-1.391-.446-14.285 11.428-13.605 12.528.342.554.133.704-.465.335-.597-.37-4.154 1.626-7.904 4.433-8.95 6.7-21.976 14.729-32.415 19.98-9.674 4.865-27.962 12.364-32.685 13.401-1.77.39-3.218 1.148-3.218 1.687 0 .539-.39.738-.867.444-.476-.294-5.259.579-10.628 1.941s-10.83 2.476-12.134 2.476c-1.304 0-2.371.346-2.371.77 0 .423-1.688.776-3.75.784-2.063.008-6.225.337-9.25.732-15.196 1.98-44.817 1.5-56.928-.921l-3.179-.636.053 4.386c.03 2.412-.173 5.96-.45 7.885-.277 1.925-.666 6.2-.864 9.5-.199 3.3-.616 6.675-.927 7.5-.312.825-1.093 6-1.738 11.5-.644 5.5-1.314 10.9-1.49 12-.175 1.1-.652 4.025-1.06 6.5-.408 2.475-.78 5.963-.83 7.75-.047 1.788-.363 3.25-.7 3.25-.736 0-3.343 14.368-3.306 18.22.014 1.497-.195 2.5-.466 2.229-.448-.449-4.65 15.569-5.654 21.551-.23 1.375-2.225 8.896-4.43 16.713-55.069 195.109-196.916 352.882-385.031 428.257-57.717 23.127-119.073 37.735-183 43.571-20.285 1.852-77.126 2.712-96.5 1.46zm98.5-8.41c115.71-11.72 220.217-50.546 312.5-116.097 20.776-14.759 38.044-28.814 65.75-53.518 3.126-2.788 3.75-3.995 3.75-7.262 0-6 4.767-18.954 16.347-44.425 7.441-16.367 12.515-29.341 17.206-44 14.184-44.32 25.25-67.741 38.755-82.022 2.855-3.02 11.505-10.567 19.221-16.773 24.635-19.813 32.093-29.72 36.268-48.183a8085.067 8085.067 0 0 0 4.138-18.422c3.86-17.302 9.453-26.294 34.246-55.07 7.432-8.624 15.606-18.749 18.166-22.5 4.593-6.73 4.692-7.047 7.612-24.39 3.499-20.782 7.302-53.226 6.856-58.491l-.315-3.72-9.25-2.215-9.25-2.215-.015 2.606c-.058 10.209-6.388 24.559-20.997 47.606-5.578 8.8-11.66 18.98-13.514 22.624-1.855 3.643-4.107 6.905-5.005 7.25-2.935 1.126-12.001.659-17.038-.879-7.091-2.165-13.43-7.246-16.932-13.574-2.676-4.835-2.999-6.339-2.991-13.92.01-6.415.472-9.36 1.896-12 2.823-5.237 6.588-9.49 11.602-13.106 2.471-1.783 11.693-10.585 20.493-19.561l16-16.32-11.173-5.547c-36.25-17.997-69.668-48.582-89.996-82.367-5.42-9.008-7.312-9.89-11.484-5.35-3.243 3.528-4.241 6.165-7.828 20.673-3.376 13.654-6.344 18.476-12.301 19.988-4.657 1.182-11.676-1.384-15.18-5.549-4.81-5.715-5.974-12.436-5.521-31.862.224-9.625.38-21.328.346-26.008-.098-13.599-2.789-16.896-17.98-22.031-15.504-5.24-18.42-9.207-20.949-28.486-1.823-13.905-4.403-21.325-9.304-26.762-15.554-17.255-44.531-8.408-73.65 22.486-9.298 9.865-16.111 19.962-20.365 30.182-4.02 9.656-5.664 16.98-7.624 33.975-2.74 23.752-9.317 45.543-20.204 66.924-13.36 26.241-27.868 31.95-39.02 15.354-5.015-7.461-8.523-21.296-11.827-46.634-3.128-23.989-6.634-35.614-15.312-50.775-7.373-12.88-13.67-21.458-28.238-38.46-21.918-25.582-29.335-36.335-41.829-60.647-13.339-25.955-22.337-30.944-59.595-33.045-21.441-1.21-31.45-3.484-49.127-11.163-28.272-12.283-31.435-13.308-50.38-16.326-19.406-3.092-25.595-6.118-40.958-20.033-14.319-12.967-20.691-14.592-23.729-6.05-1.93 5.43-.97 14.297 2.84 26.188 2.544 7.942 3.786 10.244 7.71 14.29 2.952 3.041 6.155 5.247 8.679 5.973 2.2.633 11.65 1.53 21 1.994 18.633.925 24.607 1.962 34.494 5.985 23.532 9.577 38.903 31.988 34.104 49.725-1.689 6.24-8.587 15.84-15.267 21.245-14.892 12.05-32.947 20.314-82.32 37.68-8.127 2.858-24.432 10.083-38.913 17.243-27.534 13.614-39.526 18.178-47.746 18.173-6.037-.004-11.255-2.54-12.354-6.003-.375-1.18-.862-1.964-1.082-1.743-.221.22 1.137 5.033 3.018 10.694 3.7 11.14 6.335 14.835 13.036 18.28 6.307 3.242 14.196 3.345 29.934.388 15.885-2.985 20.38-3.184 26.982-1.197 9.813 2.953 14.614 9.025 14.614 18.485 0 9.76-8.245 36.736-15.806 51.715-10.048 19.905-28.555 40.492-49.694 55.278-21.155 14.798-29.897 21.776-38.577 30.792-18.856 19.589-29.106 39.427-31.98 61.901-1.593 12.448-.183 24.005 6.011 49.282 5.61 22.894 6.914 34.282 5.118 44.718-2.404 13.977-7.84 22.18-22.471 33.908-16.486 13.215-21.143 19.665-22.301 30.886-.608 5.887.982 19.58 3.218 27.717 4.797 17.454 4.73 17.034 3.582 22.828-1.783 8.988-5.927 15.97-27.051 45.574-10.99 15.4-21.675 31.15-23.746 35-5.132 9.538-14.426 18.967-20.203 20.494-3.648.965-5.119.89-8.609-.444-6.063-2.315-16.474-13.6-27.26-29.55-17.009-25.148-26.41-36.329-51.295-61-14.296-14.174-24.52-25.125-25.762-27.596-1.132-2.252-3.86-11.285-6.061-20.073-2.202-8.787-4.963-18.419-6.136-21.404-3.207-8.162-8.753-14.764-18-21.427-25.813-18.598-29.988-22.703-34.073-33.5-6.145-16.24-2.74-35.71 11.906-68.08 9.851-21.774 11.69-28.13 11.69-40.42 0-11.395-.642-13.715-9.624-34.773-3.231-7.575-6.793-17.475-7.916-22a2369.327 2369.327 0 0 0-2.554-10.227c-.283-1.1-.907-13.025-1.388-26.5-1.395-39.059-5.324-52.45-18.65-63.558-14.162-11.806-31.205-22.386-41.878-26-12.787-4.328-18.564-4.319-36.043.055-20.394 5.103-27.679 4.263-40.447-4.662l-5.5-3.845-.801 7.755c-.44 4.266-.587 24.18-.327 44.255.48 36.913 1.538 52.112 5.695 81.76C325.869 961.14 406.448 1105.3 529.738 1207.98c86.202 71.792 190.829 120.048 301.302 138.966 19.29 3.303 46.925 6.674 65.698 8.014 19.085 1.362 84.698.5 103-1.355zm-93.5-67.65c-21.661-1.783-63.445-8.33-62.053-9.722.25-.25 5.54.488 11.754 1.64 96.016 17.793 220.344 1.39 325.299-42.918 23.479-9.912 53.637-25.774 72.25-38.002 1.787-1.174 3.25-1.912 3.25-1.64 0 .273-4.163 3.19-9.25 6.483-67.184 43.482-155.183 72.765-248.75 82.775-18.102 1.937-75.369 2.793-92.5 1.383zm-65.688-10.624c.722-.289 1.584-.253 1.917.08.332.332-.259.568-1.313.525-1.165-.048-1.402-.285-.604-.605zm-4-1c.722-.289 1.584-.253 1.917.08.332.332-.259.568-1.313.525-1.165-.048-1.402-.285-.604-.605zm-4-1c.722-.289 1.584-.253 1.917.08.332.332-.259.568-1.313.525-1.165-.048-1.402-.285-.604-.605zm425.188-78.694c0-.208.787-.995 1.75-1.75 1.586-1.244 1.621-1.209.377.377-1.306 1.666-2.127 2.196-2.127 1.373zm-491.85-76.708c-2.248-2.247-5.338-6.635-6.868-9.75-2.78-5.66-2.782-5.679-2.511-24.45.257-17.844.12-19.445-2.75-31.947-6.456-28.123-3.228-35.595 20.833-48.227 7-3.675 14.413-8.722 21.646-14.736 14.443-12.01 21.048-16.19 28.976-18.336 6.263-1.695 6.617-1.694 8.508.017 3.09 2.797 6.261 12.292 6.243 18.694-.02 6.556-2.468 12.573-10.346 25.419-8.697 14.182-9.851 18.622-11.413 43.901-1.374 22.243-2.551 28.743-6.698 37-5.614 11.18-15.543 19.847-27.613 24.108-9.977 3.522-13.085 3.23-18.008-1.693zm21.35-5.284c12.553-5.928 20.891-17.19 23.982-32.39.753-3.708 1.65-13.716 1.994-22.24.954-23.732 3.16-32.197 11.921-45.737 9.895-15.295 11.83-23.76 7.572-33.143-1.923-4.237-2.106-4.36-5.643-3.786-6.34 1.029-13.478 5.433-26.324 16.243-9.267 7.799-15.227 11.9-23.26 16.01-5.94 3.038-12.433 6.957-14.428 8.71-7.807 6.854-9.034 15.431-4.582 32.021 2.562 9.548 2.733 11.488 2.75 31.181.017 19.78.151 21.29 2.319 26 1.266 2.75 3.74 6.498 5.5 8.327 2.879 2.995 3.599 3.267 7.199 2.719 2.2-.335 7.15-2.097 11-3.915zm715-224.271c-20.213-4.13-29.446-8.412-43.5-20.18-29.976-25.1-52.343-77.308-54.842-128.013-.751-15.246.282-20.795 4.488-24.103 5.68-4.468 11.708-1.323 19.522 10.184 8.325 12.26 9.907 17.102 11.025 33.743.701 10.441.686 15.917-.051 18.03-1.503 4.312-.683 5.574 5.9 9.083 7.21 3.842 7.976 5.376 11.443 22.896 3.348 16.919 5.106 23.179 8.284 29.5 5.509 10.956 9.28 13.74 26.898 19.85 21.026 7.291 28.312 12.862 30.226 23.109.739 3.954.605 4.74-.951 5.572-1.75.937-14.364 1.162-18.442.329zm14.5-5.41c0-1.815-2.715-6.361-5.155-8.632-3.446-3.205-12.877-7.563-25.345-11.71-22.086-7.347-27.246-14.767-34.497-49.608-1.66-7.975-3.436-15.47-3.947-16.657-.511-1.187-3.621-3.592-6.911-5.346-7.619-4.06-8.985-6.829-7.149-14.483 1.638-6.825.613-22.343-2.039-30.882-3.417-11.002-14.144-26.632-18.277-26.632-7.04 0-6.089 30.714 1.92 61.964 13.69 53.414 43.326 91.58 77.957 100.394 10.277 2.616 23.443 3.51 23.443 1.593zM616.12 1180.06c4.658-1.77 10.63-8.263 16.033-17.43 2.955-5.013 13.375-20.365 23.156-34.115 21.364-30.033 23.924-34.131 26.474-42.386l1.974-6.387-3.583-14.113c-7.153-28.171-5.51-42.848 6.173-55.16 1.59-1.675 7.864-7.147 13.943-12.16 11.79-9.724 15.408-14.051 18.459-22.08 4.475-11.78 3.636-24.429-3.486-52.559-5.784-22.845-7.185-35.199-5.601-49.405 2.066-18.529 8.563-34.294 21.107-51.21 11.267-15.197 20.692-23.438 56.083-49.04 20.147-14.574 34.74-31.521 44.347-51.5 7.163-14.897 14.539-38.76 14.539-47.04 0-4.973-3.06-10.007-7.747-12.744-4.402-2.57-13.707-2.466-28.22.317-19.084 3.66-31.506 1.686-39.869-6.334-4.26-4.086-5.162-5.884-9.558-19.056-5.932-17.778-9.876-22.133-28.72-31.718-15.849-8.062-21.238-12.938-24.841-22.475-2.424-6.416-2.409-4.814-.43-45.462.714-14.653.32-16.021-7.622-26.488-10.346-13.633-11.404-19.724-8.035-46.239 2.175-17.116 2.539-24.387 2.196-43.943l-.179-10.183-4.196-3.591c-6.658-5.7-14.416-7.607-33.28-8.18-8.8-.268-18.129-.952-20.731-1.52-7.137-1.56-12.485-5.947-15.434-12.662-6.79-15.46-15.147-16.689-23.723-3.49-7.096 10.922-13.458 15.627-21.142 15.637-6.146.008-8.723-2.396-14.61-13.625-4.464-8.514-7.078-11.98-15.78-20.928-5.736-5.898-10.794-11.298-11.24-12-.444-.702-.816-3.47-.824-6.154-.016-5.202 3.809-13.351 8.068-17.188 5.072-4.57 4.045-10.724-2.29-13.724-4.63-2.193-22.777-4.017-32.293-3.247-11.878.961-26.746 3.38-37.822 6.151-18.644 4.665-30.669 10.199-43.988 20.243-7.63 5.754-9.852 8.183-16.598 18.143-58.37 86.192-96.176 191.012-106.208 294.48l-1.22 12.591 3.915 4.01c2.154 2.206 6.576 5.34 9.828 6.965 8.301 4.148 17.714 4.104 34.114-.16 13.803-3.59 19.822-3.785 30.614-.998 9.494 2.452 18.572 6.98 31.974 15.95 30.462 20.387 35.435 31.186 36.911 80.162.958 31.772 1.333 33.386 15.004 64.5 5.937 13.513 7.409 20.69 6.72 32.775-.6 10.514-3.476 19.598-12.371 39.07-11.579 25.348-15.807 42.73-13.534 55.634 2.43 13.79 8.867 21.792 28.193 35.043 20.828 14.281 25.363 21.288 31.843 49.195 2.385 10.272 4.842 18.33 6.397 20.98 1.389 2.367 6.508 7.859 11.376 12.204 25.05 22.36 47.514 48.403 67.369 78.1 8.287 12.395 15.775 20.805 20.97 23.553 4.174 2.208 4.19 2.21 7.395.99zm-35.014-105.306c-16.298-16.726-28.078-31.985-35.186-45.578-6.05-11.569-7.417-16.397-9.687-34.225-3.297-25.884-7.441-36.416-22.011-55.936-17.635-23.627-20.079-35.307-11.57-55.3 2.28-5.354 4.584-12.055 5.122-14.891.538-2.836 1.242-5.415 1.564-5.732 1.143-1.123-.863 9.504-2.817 14.923l-4.505 12.5c-2.05 5.694-2.415 8.13-1.955 13.066 1.06 11.344 5.068 19.181 19.146 37.434 7.539 9.775 13.686 21.636 16.066 31 .91 3.575 2.51 13.245 3.557 21.488 2.253 17.735 3.713 23.174 9.115 33.947 8.665 17.281 21.15 33.702 41.676 54.815 3.61 3.713 6.297 6.75 5.972 6.75-.325 0-6.844-6.417-14.487-14.26zm93.71-210.322c.048-1.165.285-1.402.605-.604.288.722.253 1.584-.08 1.917-.332.332-.568-.259-.525-1.313zm-166.92-5.417c0-1.375.226-1.937.504-1.25.277.688.277 1.813 0 2.5-.278.688-.505.125-.505-1.25zm165.019-.51c-1.196-2.625-2.85-3.53-9.883-5.416-2.313-.62-4.9-1.822-5.75-2.672-2.155-2.155-1.925-7.735.517-12.522 4.906-9.617 8.18-30.65 6.013-38.635-.854-3.15-2.958-6.042-8.091-11.124-3.816-3.778-7.328-7.938-7.806-9.245-1.446-3.954.517-8.337 6.882-15.36 7.218-7.966 8.008-9.752 6.885-15.571-.471-2.445-.877-6.73-.9-9.523-.058-6.697 3.836-12.645 12.052-18.409 8.75-6.137 14.696-8.121 26.604-8.877 9.928-.63 10.298-.74 13.838-4.141 2-1.922 4.517-5.202 5.592-7.29 4.128-8.01 12.444-14.834 20.87-17.126 1.375-.374-.29.708-3.7 2.404-6.681 3.322-12.033 8.741-15.82 16.017-4.672 8.979-9.056 12-17.41 12-12.502 0-22.784 4.063-32.095 12.683-6.685 6.19-8.194 9.783-6.906 16.45 1.21 6.264 1.113 12.654-.229 15.183-.638 1.201-3.863 5.233-7.167 8.958-8.169 9.211-8.096 10.594 1.022 19.497 8.772 8.565 9.78 11.28 8.982 24.156-.688 11.084-2.579 18.864-6.868 28.268-3.984 8.731-3.471 11.052 2.939 13.318 8.442 2.984 9.12 3.358 10.834 5.973.929 1.417 1.476 2.79 1.215 3.05-.26.26-.989-.66-1.62-2.046zm71.323-177.49c2.749-1.181 4.327-1.181 2.5 0-.825.534-2.175.945-3 .915-.99-.036-.82-.348.5-.915zm-200.035-35.932c-4.304-1.031-5.898-2.068-11.434-7.439-2.695-2.614-5.13-5.962-5.412-7.44-.282-1.48-.811-4.662-1.177-7.074-1.284-8.48-7.927-12.93-19.515-13.071-2.123-.026-7.307-1.861-12.775-4.522-5.06-2.464-12.436-5.461-16.39-6.662-9.352-2.841-13.715-1.974-30.813 6.126-12.853 6.09-19.519 8.014-27.748 8.014-5.755 0-11.844-3.77-19.389-12.007l-5.49-5.993-5.91.015c-3.444.01-9.253 1.053-13.912 2.5-4.4 1.367-8.675 2.466-9.5 2.444-.825-.023 3.494-1.66 9.599-3.637 15.443-5.001 18.15-4.55 27.865 4.644 8.383 7.935 12.013 10.043 17.236 10.01 6.81-.044 12.571-1.926 26.788-8.748 12.549-6.022 14.727-6.75 21.177-7.076 8.292-.419 16.041 1.738 28.335 7.886 5.495 2.748 9.37 3.937 14.5 4.447 3.85.383 8.502 1.401 10.339 2.262 4.626 2.17 7.824 7.576 8.648 14.62.582 4.977 1.29 6.522 4.68 10.2 9.21 9.992 19.26 10.919 42.03 3.879 6.17-1.907 8.976-2.26 14.134-1.78 12.393 1.158 20.743-3.594 25.24-14.364 6.672-15.98 8.44-17.363 21.901-17.123l10.028.178-9.5.617c-5.225.34-10.25.968-11.166 1.397-2.66 1.244-6.506 7.546-9.406 15.412-3.172 8.605-6.86 12.167-15.69 15.148-4.417 1.492-7.398 1.846-12.053 1.432-4.919-.437-7.824-.032-14.185 1.977-13.68 4.32-23.598 5.51-31.035 3.728zM351.471 603.89c.678-.683 1.485-.99 1.793-.683.308.308-.247.868-1.233 1.243-1.426.543-1.54.428-.56-.56zm312.708-1.32c1.067-.856 2.38-1.556 2.916-1.556 1.27 0 .704.462-2.357 1.92-2.358 1.123-2.39 1.102-.56-.364zm-303.629-2.24c.722-.289 1.584-.253 1.917.08.332.331-.259.568-1.313.524-1.165-.048-1.402-.285-.604-.604zm4.704-85.317c1.576-7.351 11.94-38.195 18.144-54 18.025-45.916 44.647-88.03 67.917-107.44 5.467-4.56 5.265-4.252-2.618 4-13.868 14.517-24.493 29.136-37.023 50.94-13.113 22.818-29.89 61.301-41.417 95-4.936 14.43-6.306 17.579-5.003 11.5zM1415.24 1146c75.683-83.409 126.908-181.639 151.96-291.4.533-2.338 1.86-3.771-16.113 17.413-27.696 32.648-28.725 34.408-33.424 57.122-3.612 17.462-5.145 22.398-9.66 31.106-4.641 8.948-12.978 17.844-28.744 30.673-23.403 19.043-30.948 27.996-39.96 47.414-5.468 11.78-12.246 30.166-18.108 49.118-5.642 18.24-8.275 24.932-18.895 48.032-8.103 17.624-15.558 36.179-15.558 38.72 0 1.637 13.991-12.205 28.502-28.198zm107.112-321.237c1.456-2.887 6.73-11.55 11.72-19.25 15.792-24.37 24.17-43.387 22.331-50.689-.444-1.76-2.131-2.865-7.09-4.639-3.718-1.33-7.381-2.05-8.544-1.682-1.12.356-9.348 7.929-18.284 16.829-8.936 8.9-19.012 18.529-22.392 21.397-7.413 6.294-10.355 11.772-10.355 19.284 0 13.116 11.533 23.858 25.733 23.968 4.114.031 4.307-.116 6.88-5.218zm134.886-71.721c46.765-8.063 86.221-28.546 118.718-61.634 11.763-11.976 17.915-19.57 27.054-33.395 22.54-34.095 34.728-75.159 34.728-117 0-33.7-7.3-65.092-22.075-94.924-11.299-22.814-23.554-39.854-41.493-57.695-35.18-34.985-80.198-56.21-130.369-61.462-13.864-1.452-41.746-.685-54.676 1.503-38.453 6.508-74.339 22.866-103.273 47.075-90.206 75.474-103.904 207.15-31.106 299.003 35.486 44.775 88.992 74.14 146.492 80.398 13.749 1.497 41.933.556 56-1.87zm-16.75-28.69c.687-.278 1.812-.278 2.5 0 .687.276.125.503-1.25.503s-1.938-.227-1.25-.504zm7.25-1.394c1.925-.553 10.025-2.835 18-5.071 59.793-16.766 100.166-44.776 120.935-83.904 6.074-11.443 6.63-11.148.961.508-20.267 41.669-60.887 70.216-120.896 84.964-13.324 3.275-26.96 5.789-19 3.503zm-136.27-54.69c-1.858-2.053-3.74-6.657-3.708-9.07.034-2.55 3.724 2.5 4.94 6.76 1.177 4.121.892 4.657-1.232 2.31zm23.086-.759c-.628-1.377-.806-2.839-.397-3.248.863-.863 3.58 2.51 3.58 4.443 0 2.2-1.974 1.458-3.183-1.195zm-57.802-25.71c-2.591-2.782-4.525-9.055-3.534-11.46.617-1.498.845-1.556 1.271-.326.285.825 1.563 4.313 2.839 7.75 1.276 3.438 2.133 6.25 1.904 6.25-.23 0-1.345-.996-2.48-2.214zm53.67.197c-16.925-5.08-23.618-35.294-11.747-53.028 4.087-6.105 8.597-8.918 15.168-9.46l5.395-.444-4.347.939c-6.387 1.38-10.254 3.994-13.89 9.392-4.33 6.426-5.697 11.543-5.645 21.118.095 17.527 9.445 29.538 22.947 29.478 8.97-.04 17.147-5.775 21.051-14.765 2.107-4.851 2.098-16.362-.019-22.119-.89-2.423-1.421-4.604-1.179-4.846.92-.92 4.58 13.17 4.575 17.608-.022 18.292-15.828 31.074-32.309 26.127zm125.374-9.16c-6.95-3.635-8.558-6.575-8.558-15.646 0-8.517 2.255-14.55 7.798-20.864 6.205-7.067 17.426-11.27 25.218-9.446 3.897.912 3.848.935-2.299 1.033-7.852.125-12.506 2.03-18.084 7.398-12.217 11.76-13.635 30.67-2.644 35.263 4.822 2.014 13.178 1.773 18.242-.526 6.001-2.724 13.483-10.087 16.248-15.99 1.298-2.772 2.527-4.871 2.732-4.666.846.845-4.718 11.41-7.98 15.153-8.045 9.23-21.778 12.943-30.673 8.291zm-195.789-53.573c-3.019-2.823-7.295-12.593-7.237-16.537.018-1.24.82.065 1.822 2.966 4.341 12.561 10.772 16.718 16.993 10.985 10.49-9.667 8.432-31.168-3.77-39.39-4.59-3.093-7.39-2.879-10.489.803-3.066 3.644-3.52 2.377-.516-1.442 1.681-2.137 2.908-2.635 6.497-2.635 3.694 0 5.098.609 8.5 3.682 5.155 4.657 7.557 9.374 9.446 18.546 1.24 6.019 2.097 7.833 4.976 10.522 4.211 3.934 8.244 4.219 13.943.984 8.55-4.853 14.708-18.672 12.571-28.208-1.472-6.571-4.288-11.688-8.433-15.328-8.61-7.56-21.158-5.955-25.151 3.218-.739 1.696-1.36 2.5-1.382 1.785-.071-2.353 2.88-7.008 5.695-8.983 8.956-6.284 22.243-1.937 28.924 9.462 3.093 5.278 4.27 16.206 2.465 22.88-4.713 17.425-24.28 25.602-31.603 13.207l-1.838-3.113-1.136 4.473c-3.269 12.873-13.153 18.783-20.277 12.123zm100.184-17.517c-5.655-2.288-10.173-5.71-12.82-9.71-3.489-5.272-3.375-6.373.168-1.622 7.97 10.69 22.3 13.635 35.008 7.196 13.605-6.894 17.794-21.534 10.371-36.24-5.947-11.78-15.802-17.932-27.531-17.185-8.659.551-14.935 4.376-19.4 11.82-1.787 2.98-3.248 4.765-3.246 3.964 0-1.762 3.407-7.568 6.352-10.838 6.366-7.07 21.363-9.353 31.145-4.74 6.654 3.138 11.88 8.619 15.788 16.556 2.814 5.717 3.21 7.517 3.194 14.545-.014 6.29-.486 8.905-2.19 12.116-2.545 4.792-7.638 9.51-13.57 12.572-5.075 2.619-18.444 3.519-23.27 1.566zm-108.296-3.733c0-1.375.227-1.937.505-1.25.277.688.277 1.813 0 2.5-.278.688-.505.125-.505-1.25zm346.843-33.78c0-7.395-2.79-28.194-5.511-41.079-2.318-10.976-7.603-28.03-12.391-39.98-2.163-5.397-13.226-27.875-17.798-36.16-4.638-8.406.832-.556 8.014 11.5 12.982 21.794 21.519 44.617 25.652 68.586 2.082 12.074 3.994 41.913 2.685 41.913-.358 0-.651-2.15-.651-4.78zm-256.922-.803c.048-1.165.285-1.402.605-.604.289.722.253 1.584-.08 1.917-.332.332-.568-.259-.525-1.313zm-25.078-22.417c0-2.2.45-4 1-4s1 1.8 1 4-.45 4-1 4-1-1.8-1-4zm-68.8.047c-1.936-1.937-3.552-5.167-4.694-9.385-1.601-5.915-1.62-7.024-.222-13.797 4.665-22.617 18.736-41.161 30.926-40.755 3.073.102 3.007.165-.99.953-7.827 1.542-14.697 8.314-20.64 20.342-3.608 7.3-7.58 20.703-7.58 25.574 0 4.689 2.886 12.566 5.506 15.028 5.354 5.03 13.822 1.742 24.263-9.419 6.634-7.092 13.661-19.893 15.144-27.588.846-4.389.87-4.412.977-.944.275 8.933-8.819 26.029-18.753 35.254-6.113 5.676-10.441 7.69-16.528 7.69-3.602 0-5.022-.566-7.409-2.953zm56.8-15.99c0-2.854.715-4.721 2.587-6.75 2.033-2.205 2.447-2.378 1.93-.807-.362 1.1-1.153 4.138-1.76 6.75-1.338 5.77-2.757 6.186-2.757.806zm60-23.368c0-2.776 2.87-7.689 4.49-7.689.228 0-.235 2.138-1.027 4.75-.793 2.613-1.447 5.088-1.453 5.5-.01.413-.46.75-1.01.75s-1-1.49-1-3.311zm-74.922-9.272c.048-1.165.285-1.402.605-.604.289.722.253 1.584-.08 1.917-.332.332-.568-.259-.525-1.313zm65.418-26.782c-1.876-2.863-.705-6.917 2.492-8.628 2.06-1.103 2.065-1.071.5 2.677-.872 2.086-1.33 4.81-1.018 6.055.732 2.916-.02 2.877-1.974-.104zM1192.816 722.74c5.13-3.457 10.371-10.985 16.87-24.227 10.003-20.38 15.483-40.284 18.522-67.27 3.206-28.461 10.748-43.413 32.702-64.828 19.759-19.273 37.045-28.402 53.784-28.402 19.48 0 30.244 12.734 33.595 39.743.767 6.19 2.066 12.551 2.886 14.137 2.289 4.425 7.119 7.938 13.38 9.73 21.167 6.058 23.983 11.572 22.176 43.415-1.537 27.067.503 37.202 8.304 41.25 7.737 4.015 11.913-.855 15.67-18.275 3.131-14.523 7.527-21.96 14.343-24.266.445-.15-.953-4.106-3.106-8.79-32.544-70.775-26.362-153.026 16.306-216.944 9.637-14.437 18.143-24.499 31.809-37.63l12.426-11.94-9.486-13.965C1349.347 172.45 1145.515 66.71 927.237 71.36c-77.919 1.66-146.4 15.017-218.46 42.609-26.097 9.992-61.98 26.94-84.04 39.693l-8.5 4.914.065 4.469c.035 2.458 1.593 9.42 3.464 15.47 6.762 21.874 4.572 28.156-14.975 42.96-5.295 4.009-11.129 9-12.965 11.092-3.145 3.581-6.088 9.105-6.088 11.424 0 .572 2.449 3.705 5.442 6.96 6.382 6.943 7.8 11.074 7.535 21.97-.317 13.07-.184 13.912 2.474 15.653 3.212 2.105 6.126 1.093 7.403-2.57.561-1.611 1.334-7.33 1.716-12.71.984-13.83 5.322-24.28 10.08-24.28.866 0 3.886 2.515 6.712 5.59 2.826 3.073 7.057 7.686 9.402 10.25 5.923 6.474 8.236 11.63 8.236 18.363 0 8.773-3.589 13.176-20.596 25.272-18.063 12.846-25.533 18.87-32.603 26.29-7.894 8.283-8.839 13.647-2.707 15.363 15.062 4.215 53.885-8.51 79.926-26.195 4.723-3.208 9.83-6.306 11.349-6.883 4.384-1.667 11.713-1.228 18.655 1.116 5.923 2 6.912 2.066 12.944.867 11.544-2.296 18.142-2.354 21.612-.19 6.722 4.193 8.119 13.698 3.945 26.856-3.181 10.027-9.336 20.387-19.188 32.301-12.626 15.267-14.185 17.45-17.458 24.445-5.607 11.98-3.642 19.736 11.71 46.225 15.559 26.845 21.06 42.354 24.936 70.3 1.982 14.287 5.539 21.303 18.013 35.53 21.605 24.64 24.4 33.153 16.843 51.307-4.095 9.84-5.461 19.496-3.184 22.51.755.999 3.178 2.058 5.383 2.354 7.546 1.012 19.145-3.175 46.343-16.73 18.998-9.466 30.207-14.342 43.577-18.955 58.177-20.071 81.984-33.695 90.186-51.611 4.835-10.561 1.32-22.258-10.133-33.71-12.653-12.653-25.885-17.313-53.172-18.724-26.762-1.384-30.595-3.234-37.808-18.245-9.611-20.002-9.877-39.384-.606-44.179 6.546-3.385 13.02-.97 24.033 8.968 18.706 16.878 19.969 17.484 45.942 22.04 14.925 2.618 18.887 3.909 40.558 13.22 24.918 10.706 28.416 11.465 65.5 14.221 29.643 2.203 39.016 9.03 54.277 39.534 9.411 18.812 18.908 32.216 39.031 55.088 20.955 23.817 35.407 48.431 40.563 69.08 1.075 4.308 2.936 15.463 4.136 24.79 3.268 25.413 7.432 39.685 13.436 46.05 3.955 4.195 7.685 4.554 12.635 1.219zm5.063-61.678c3.843-7.769 4.026-12.037.916-21.378-1.936-5.816-2.217-8.412-1.895-17.5.49-13.822 2.413-17.635 12.328-24.445 12.61-8.661 13.41-10.002 15.473-25.898.547-4.22 1.68-9.282 2.516-11.25.836-1.968 2.14-5.053 2.899-6.856 2.145-5.103 6.432-9.592 11.719-12.27 6.354-3.22 7.635-3.13 1.903.135-5.461 3.109-8.751 6.07-10.517 9.462-2.942 5.653-5.7 15.869-6.58 24.379-1.288 12.451-3.408 16.421-11.73 21.971-12.6 8.403-14.635 11.698-15.792 25.58-.501 6.014-.201 9.037 1.496 15.085 1.167 4.16 2.123 9.463 2.123 11.783 0 4.1-2.978 11.332-6.446 15.653-.883 1.1-.168-.903 1.587-4.451zm127.731-150.799c-1.244-1.586-1.209-1.621.378-.377.962.755 1.75 1.542 1.75 1.75 0 .823-.822.293-2.128-1.373zm-6.872-11.25c-.59-1.1-.846-2-.57-2 .274 0 .98.9 1.57 2 .588 1.1.845 2 .57 2s-.982-.9-1.57-2zm-6.564-9.762c-5.575-7.418-18.734-19.328-24.741-22.393-2.113-1.078-9.096-3.339-15.518-5.025-11.595-3.043-11.755-3.056-22.677-1.84-6.05.673-18.466 1.066-27.59.872-16.374-.347-16.644-.389-20.72-3.216-2.358-1.637-6.72-6.647-10.168-11.683-5.942-8.675-17.28-19.988-28.306-28.245-2.87-2.148-8.591-6.92-12.716-10.605-4.125-3.685-10.335-8.86-13.8-11.498-3.465-2.64-7.515-6.637-9-8.883-2.537-3.838-2.685-4.685-2.438-13.97l.263-9.883-5.013-9.637c-5.445-10.468-5.856-12.65-3.372-17.887 2.135-4.5 6.647-7.863 13.89-10.355 3.21-1.105 8.568-3.507 11.904-5.338 3.336-1.832 9.216-4.357 13.066-5.612 14.918-4.864 21.466-8.056 22.155-10.804.49-1.953.105-3.012-1.6-4.391-4.502-3.646-9.451-4.16-27.055-2.81-18.33 1.406-27.328.796-29.688-2.011-.838-.997-2.77-3.187-4.292-4.868l-2.768-3.057-13.876.506c-7.632.278-16.801.088-20.376-.423-5.332-.761-2.674-.95 14.795-1.055 23.597-.14 22.127-.518 27.338 7.013 1.553 2.245 2.163 2.356 12.5 2.279 5.976-.045 17.392-.27 25.367-.5 16.066-.464 20.099.582 22.053 5.722 2.286 6.013-3.27 10.167-22.053 16.49-5.225 1.76-11.525 4.434-14 5.943-2.475 1.51-7.577 3.798-11.338 5.086-7.798 2.67-14.662 8.898-14.662 13.303 0 1.38 2.307 6.902 5.127 12.273l5.128 9.764-.588 8.377c-.887 12.634-1.395 11.862 19.833 30.123 3.85 3.312 9.657 8.154 12.906 10.761 15.012 12.045 26.249 23.051 31.182 30.542 10.568 16.043 11.837 16.646 35.09 16.675 9.447.012 20.553-.447 24.678-1.021 6.767-.941 8.563-.79 18.323 1.545 5.951 1.423 13.52 3.857 16.82 5.409 10.01 4.707 24.257 18.47 30.89 29.84 1.71 2.93-.23.772-4.953-5.513zM883.15 348.123c-6.773-4.13-9.071-9.498-12.307-28.744-1.907-11.342-4.253-17.324-8.257-21.048-4.41-4.102-7.457-4.64-25.225-4.446-15.08.165-17.319-.03-21.022-1.822-5.026-2.433-7.886-6.946-8.009-12.64-.18-8.315 6.508-11.859 24.409-12.934 12.568-.756 21.249-2.72 26-5.882 1.925-1.281 8.225-6.494 14-11.583 26.559-23.407 30.76-26.486 35.224-25.82 3.586.537 4.316 3.024 3.053 10.4-.904 5.275-2.145 8.142-5.856 13.525-3.626 5.259-4.82 7.97-5.186 11.785-.454 4.721-.21 5.332 5.164 12.958 9.33 13.238 9.511 14.325 7.797 46.657-.993 18.744-1.809 21.562-7.5 25.903-7.474 5.7-16.53 7.201-22.285 3.691zm16.277-5.826c7.031-3.648 7.636-5.836 8.652-31.297l.9-22.577-2.52-4.954c-1.385-2.725-3.958-6.755-5.717-8.955-7.408-9.264-8.255-16.034-3.093-24.716 5.468-9.2 9.25-17.627 8.914-19.864-.302-2.012-.743-1.843-6.324 2.423-3.3 2.523-11.85 9.81-19 16.193-21.206 18.932-27.866 22.464-42.35 22.464-11.59 0-19.86 1.769-23.506 5.026l-3.108 2.778 1.694 3.553c2.883 6.046 5.467 6.723 24.513 6.427 15.242-.238 17.17-.071 21.33 1.843 9.414 4.332 13.423 11.335 16.352 28.564 2.346 13.802 4.316 19.705 7.71 23.099 2.607 2.607 3.483 2.9 7.351 2.465 2.415-.273 6.106-1.385 8.202-2.472zm159.08-57.007c1.797-.223 4.497-.218 6 .01 1.502.228.031.41-3.268.404-3.3-.006-4.53-.192-2.733-.414zm-8.018-.938c.687-.277 1.812-.277 2.5 0 .687.277.125.504-1.25.504s-1.938-.227-1.25-.504zm-7.75-2.338c-.825-.533-1.05-.969-.5-.969s1.675.436 2.5.97c.825.533 1.05.969.5.969s-1.675-.436-2.5-.97zm256.872-49.75c-1.244-1.586-1.209-1.621.378-.377 1.665 1.306 2.195 2.127 1.372 2.127-.208 0-.995-.787-1.75-1.75zm-7.431-4.805c-1.864-1.493-1.852-1.512.309-.465 1.237.6 2.25 1.3 2.25 1.556 0 .765-.519.544-2.56-1.09zm-9.92-4.935c-12.04-5.725-19.557-7.016-40.521-6.96-15.867.042-20.481.433-32.413 2.75-15.892 3.085-22.707 3.341-31.047 1.169-13.548-3.529-27.478-11.68-55.54-32.497-27.927-20.717-52.157-29.358-92.594-33.022-21.786-1.974-29.913-.216-53.406 11.55-24.11 12.075-32.15 13.601-58.34 11.074-20.128-1.943-26.456-1.15-44.66 5.589-26.577 9.84-30.584 11.105-36.731 11.603-7.302.592-11.083-.34-28.27-6.961-20.233-7.797-29.947-8.357-57-3.29-9.87 1.85-17.386 1.829-26.792-.075-12.782-2.587-24.683-8.99-29.433-15.836-1.59-2.29-.71-1.757 3.359 2.036 6.624 6.175 11.184 8.614 21.543 11.523 10.175 2.858 22.346 2.88 36.324.067 22.371-4.502 32.83-3.853 51.759 3.21 25.019 9.335 26.75 9.387 47.415 1.43 31.393-12.089 31.822-12.2 46.826-12.199 7.425 0 20.475.188 29 .415 18.91.505 20.236.159 43.897-11.478 9.365-4.605 20.306-9.214 24.315-10.24 20.477-5.247 69.329 1.831 94.2 13.647 10.468 4.974 21.91 12.485 41.415 27.186 23.085 17.4 40.833 25.797 54.528 25.8 3.38.002 13.12-1.17 21.645-2.603 13.88-2.333 17.38-2.556 33.5-2.131 14.442.38 19.36.889 24.88 2.57 7.158 2.181 19.62 7.65 19.62 8.61 0 .683.77.985-7.48-2.937zm-591.07-61.603c-.88-1.7-1.421-3.27-1.204-3.487.217-.217 1.142 1.175 2.057 3.093 2.057 4.313 1.344 4.642-.853.394zm76.103 443.09c6.328-16.385 4.562-22.175-12.889-42.245-17.03-19.587-19.76-25.219-23.112-47.69-3.333-22.344-8.574-36.452-22.793-61.362l-9.59-16.801-.635 6.8c-.35 3.741-1.563 14.451-2.697 23.801-3.112 25.65-2.43 28.811 9.92 45.984l5.742 7.983-.11 12.517c-.06 6.884-.285 20.166-.5 29.516l-.39 17 2.953 5.333c3.91 7.058 6.65 9.2 20.887 16.338 13.278 6.656 21.692 13.633 25.792 21.387l2.368 4.479.7-6.79c.405-3.923 2.244-10.785 4.354-16.25zm-72.554-201.4c0-2.21 7.603-13.18 18.295-26.395 11.87-14.67 15.557-20.718 19.131-31.378 3.392-10.118 3.388-15.703-.015-19.747-3.047-3.621-7.346-4.026-16.75-1.577-7.643 1.991-11.207 1.893-18.161-.5-10.317-3.55-12.911-2.882-28.735 7.392-15.775 10.24-31.518 17.014-51.558 22.18-15.99 4.124-25.299 4.53-31.786 1.39-14.33-6.937-4.287-21.327 33.43-47.894 18.566-13.078 21.184-15.976 21.123-23.383-.042-5.134-2.95-9.92-11.597-19.09l-8.122-8.616-2.002 4.76c-1.285 3.059-2.237 8.313-2.66 14.691-.713 10.747-2.99 17.642-6.433 19.485-3.962 2.12-8.15 1.296-11.76-2.315l-3.4-3.4V276.18c0-6.619-.434-13.175-.964-14.568-.53-1.394-3.507-5.302-6.616-8.684-5.363-5.833-5.629-6.368-5.174-10.4.704-6.248 5.635-12.617 16.53-21.35 14.652-11.745 18.857-16.087 20.12-20.774 1.21-4.499.357-11.06-2.59-19.889-.917-2.75-2.374-8.06-3.237-11.802l-1.57-6.802-14.248 8.978c-57.847 36.45-112.586 85.567-157.705 141.505-6.35 7.874-11.546 14.605-11.546 14.96 0 .353 2.137-.672 4.75-2.279 13.816-8.498 42.414-16.62 67.267-19.105 13.56-1.356 34.226.163 40.483 2.976 6.09 2.737 9 6.431 9 11.423 0 3.379-.894 5.448-4.608 10.669-9.632 13.542-9.681 15.251-.664 23.095 8.02 6.975 16.85 18.227 20.873 26.597 4.539 9.445 6.37 11.285 11.225 11.285 3.485 0 4.61-.65 9.076-5.25 2.804-2.887 6.552-7.389 8.33-10.003 4.075-5.994 8.49-8.738 14.067-8.743 7.81-.007 12.349 3.882 17.566 15.051 4.138 8.857 7.118 10.05 27.539 11.026 22.908 1.094 35.654 4.067 40.026 9.335 1.405 1.693 3.07 1.248 3.07-.82zm-236.936 955.98c-1.553-1.87-.568-3.577 2.064-3.577 1.495 0 1.929.557 1.691 2.172-.4 2.714-2.132 3.362-3.755 1.405zm812.376-5.673c-.372-.602.01-1.78.845-2.618 1.823-1.823 3.715-.92 3.715 1.773 0 2.124-3.382 2.751-4.56.845zm-639-12c-.881-1.426 2.037-4.345 3.464-3.463.602.373 1.096 1.55 1.096 2.618 0 2.124-3.382 2.751-4.56.845zm1080.74-1.154c.176-1.237.995-2.25 1.82-2.25.825 0 1.643 1.013 1.82 2.25.245 1.732-.174 2.25-1.82 2.25-1.647 0-2.066-.518-1.82-2.25zm-128.514-23.416c-1.465-1.465-.621-4.334 1.275-4.334 2.356 0 3.274 1.276 2.455 3.41-.627 1.633-2.545 2.108-3.73.924zm99.698-.827c-.347-.903-.15-2.12.436-2.707 1.523-1.523 4.41-.13 4.012 1.936-.443 2.302-3.648 2.857-4.448.771zm121.212-7.007c-1.764-16.758-3.645-19.049-17.203-20.95-9.193-1.289-8.998-1.817 1.127-3.049 12.292-1.495 13.75-3.138 15.65-17.625l1.23-9.376 1.235 9c.68 4.95 1.717 10.26 2.304 11.799 1.325 3.473 5.948 5.52 14.337 6.352 9.113.903 9.92 1.954 2.103 2.742-15.487 1.56-16.732 2.783-18.784 18.465l-1.262 9.642zm6.354-20.978c1.944-.617 1.858-.855-1.43-3.957-1.926-1.815-3.502-3.923-3.504-4.683 0-.76-.871.04-1.931 1.779-1.06 1.738-2.859 3.456-3.996 3.817-2.616.83-2.657 2.201-.09 3.016 1.088.345 2.748 1.93 3.688 3.522l1.71 2.893 1.742-2.865c.958-1.576 2.673-3.16 3.811-3.522zm-409.566 18.985c-.347-.903-.15-2.12.436-2.707 1.523-1.523 4.41-.13 4.012 1.936-.443 2.302-3.648 2.857-4.448.771zm-1017.3-1.93c-1.553-1.87-.568-3.577 2.064-3.577 1.495 0 1.929.557 1.691 2.172-.4 2.714-2.132 3.362-3.755 1.405zm1120.623.778c-1.54-1.541-.647-4.355 1.382-4.355 1.556 0 1.99.54 1.75 2.172-.332 2.255-1.94 3.375-3.132 2.183zM90.293 1285.105c-.964-1.561.616-4.204 2.32-3.88.894.17 1.768 1.318 1.944 2.55.24 1.683-.18 2.24-1.69 2.24-1.107 0-2.264-.41-2.574-.91zm384.78-.658c-.33-.862-.122-2.047.465-2.633 1.555-1.555 4.2-.19 4.2 2.169 0 2.466-3.753 2.84-4.665.464zm-278.971-7.926c-.347-.903-.15-2.12.436-2.707 1.523-1.523 4.41-.13 4.012 1.936-.443 2.302-3.648 2.857-4.448.771zm105.7-3.93c-1.553-1.87-.568-3.577 2.064-3.577 1.495 0 1.929.557 1.691 2.172-.4 2.714-2.132 3.362-3.755 1.405zm1346.103-10.327c-4.679-3.985-2.258-11.25 3.749-11.25 5.703 0 8.474 8.213 3.861 11.444-2.889 2.023-5.073 1.968-7.61-.194zm7.336-2.254c2.694-2.976.68-6.996-3.503-6.996-4.185 0-6.198 4.02-3.504 6.996.997 1.103 2.574 2.004 3.504 2.004.93 0 2.506-.901 3.503-2.004zm72.91-.488c-2.064-3.15-1.206-6.942 2.053-9.078 4.146-2.716 9.534.385 9.534 5.487 0 5.908-8.37 8.502-11.588 3.59zm7.652.457c2.67-1.429 2.604-6.536-.103-7.985-5.03-2.692-9.417 3.614-5.002 7.189 2.647 2.144 2.6 2.137 5.105.796zm-1346.001-15.388c-1.553-1.87-.568-3.577 2.064-3.577 1.495 0 1.929.557 1.691 2.172-.4 2.714-2.132 3.362-3.755 1.405zm-182-18c-1.553-1.87-.568-3.577 2.064-3.577 1.495 0 1.929.557 1.691 2.172-.4 2.714-2.132 3.362-3.755 1.405zm172 0c-1.553-1.87-.568-3.577 2.064-3.577 1.495 0 1.929.557 1.691 2.172-.4 2.714-2.132 3.362-3.755 1.405zm-225.49-21.793c-1.468-15.495-3.592-18.141-15.487-19.302-10.894-1.062-11.2-1.764-1.36-3.118 5.075-.698 10.16-1.768 11.298-2.377 2.816-1.507 3.93-4.822 5.375-15.987l1.229-9.5 1.208 9.245c.664 5.084 1.628 10.348 2.14 11.698 1.467 3.856 5.348 5.701 14.78 7.025 9.07 1.272 8.85 1.802-1.257 3.032-12.224 1.487-13.787 3.208-15.511 17.086-.606 4.872-1.241 9-1.413 9.17-.171.172-.622-2.965-1.002-6.972zm6.357-19.262c2.626-.834 2.653-2.201.058-3.025-1.107-.351-2.721-2.01-3.588-3.688l-1.577-3.049-1.843 3.03c-1.014 1.668-2.774 3.327-3.912 3.688-1.944.617-1.858.856 1.43 3.958 1.926 1.815 3.502 3.922 3.504 4.682 0 .76.871-.04 1.931-1.778 1.06-1.739 2.859-3.457 3.996-3.818zm88.735 25.812c-1.465-1.465-.622-4.334 1.274-4.334 2.553 0 3.536 1.722 2.023 3.544-1.32 1.59-2.269 1.818-3.297.79zm1433.774-.43c-.372-.602.01-1.78.845-2.618 1.823-1.822 3.715-.92 3.715 1.773 0 2.124-3.382 2.751-4.56.845zm21.81-.607c-2.067-.766-1.499-4.297.69-4.297 1.068 0 2.246.494 2.619 1.096.86 1.39-1.649 3.817-3.31 3.201zm184.347-.032c-1.435-1.435-.504-4.264 1.403-4.264 1.295 0 2 .666 2 1.893 0 1.9-2.283 3.49-3.403 2.371zm-257.93-27.931c-1.466-1.465-.622-4.333 1.274-4.333 2.552 0 3.535 1.721 2.022 3.544-1.32 1.59-2.268 1.817-3.297.789zm-112.096-4.905c-1.102-1.102-1.574-2.917-1.374-5.296.238-2.848.912-3.909 3.166-4.984 5.67-2.705 11.128 2.952 8.39 8.694-1.581 3.315-7.527 4.242-10.182 1.586zm7.429-1.429c1.1-1.1 2-2.527 2-3.171 0-1.66-3.055-4.829-4.655-4.829-1.566 0-5.345 3.536-5.345 5 0 .55.9 1.9 2 3s2.45 2 3 2c.55 0 1.9-.9 3-2zm-1114.429-17.571c-.864-.864-1.571-3.104-1.571-4.977 0-6.909 8.753-8.54 11.793-2.197 1.34 2.796.39 6.256-2.193 7.98-1.912 1.277-6.396.826-8.029-.806zm8.464-2.496c.861-1.608.753-2.607-.487-4.5-1.937-2.955-4.618-3.118-7.052-.429-1.499 1.656-1.616 2.438-.677 4.5 1.48 3.246 6.567 3.511 8.216.43zm-299.38-2.761c-2.245-2.481-2.085-6.742.345-9.172 2.675-2.675 5.57-2.521 8.545.455 2.838 2.838 3.092 5.19.898 8.323-1.963 2.802-7.41 3.02-9.789.394zm9.139-3.841c.161-1.068-.628-2.775-1.755-3.794-1.698-1.537-2.474-1.66-4.544-.717-3.39 1.545-3.55 6.836-.245 8.117 2.742 1.064 6.118-.797 6.544-3.606zm1456.904-7.33a865.364 865.364 0 0 1-1.625-9.862c-.557-3.498-1.589-7.055-2.293-7.904-2.039-2.46-6.766-4.014-14.53-4.779-3.966-.39-7.01-1.037-6.762-1.436.246-.4 3.676-1.027 7.621-1.393 13.181-1.225 14.84-2.953 16.775-17.475.538-4.042 1.171-7.54 1.406-7.776.236-.235.735 2.622 1.11 6.348.993 9.86 2.35 14.067 5.126 15.886 1.347.882 6.295 2.172 10.997 2.866 4.702.695 8.77 1.484 9.039 1.753.27.27-2.972.804-7.205 1.188-8.91.808-13.73 2.544-15.324 5.521-.62 1.159-1.712 6.26-2.426 11.335-1.081 7.69-1.4 8.645-1.909 5.727zm3.603-20.75c1.126-1.238 2.756-2.256 3.623-2.262.995-.01.348-.978-1.758-2.637-1.833-1.445-3.68-3.567-4.106-4.717-.725-1.96-.875-1.895-2.406 1.066-.898 1.737-2.537 3.445-3.643 3.796-2.654.842-2.54 1.883.378 3.444 1.314.704 2.948 2.467 3.631 3.92.905 1.923 1.376 2.232 1.738 1.14.273-.826 1.417-2.513 2.543-3.75zm102.079-1.703c-.717-1.867.33-3.548 2.21-3.548 2.043 0 3.005 3.01 1.305 4.086-1.988 1.259-2.878 1.123-3.515-.538zM167.192 1089.56c-4.366-4.366-2.053-10.546 3.947-10.546 6.025 0 8.847 6.752 4.599 11-2.676 2.676-5.57 2.522-8.546-.454zm7.346-.746c1.903-1.903 1.397-5.548-1.004-7.23-1.878-1.315-2.506-1.343-4.25-.187-2.734 1.812-3.104 4.343-.98 6.692 1.985 2.193 4.476 2.483 6.234.725zm1598.564-37.293c-.347-.903-.15-2.12.436-2.707 1.523-1.523 4.41-.13 4.012 1.936-.443 2.302-3.648 2.857-4.448.771zm-1627.728-6.013c-2.679-2.68-2.985-5.549-.892-8.364 2.387-3.209 5.56-3.815 8.813-1.684 3.028 1.984 3.364 7.41.614 9.9-2.282 2.064-6.544 2.139-8.535.148zm8.027-3.1c1.218-1.846 1.16-2.39-.468-4.4-3.628-4.48-9.916-.078-7.184 5.029 1.431 2.673 5.704 2.322 7.652-.63zM.293 1037.105c-.964-1.561.616-4.204 2.32-3.88.894.17 1.768 1.318 1.944 2.55.24 1.683-.18 2.24-1.69 2.24-1.107 0-2.264-.41-2.574-.91zm1730.885-16.187c-.372-.602.01-1.78.845-2.618 1.823-1.822 3.715-.92 3.715 1.773 0 2.124-3.382 2.751-4.56.845zm-121.94-46.904c.34-.55.816-1 1.059-1 .242 0 .44.45.44 1s-.476 1-1.058 1c-.583 0-.781-.45-.441-1zm6.268-.168c.581-.581 1.647-.86 2.368-.62.75.25.296.704-1.056 1.057-1.664.435-2.054.305-1.312-.437zm25.732-51.832c.34-.55.816-1 1.059-1 .242 0 .44.45.44 1s-.476 1-1.058 1c-.583 0-.781-.45-.441-1zm-33.628-21.75c-1.244-1.586-1.209-1.621.378-.377.962.755 1.75 1.542 1.75 1.75 0 .823-.822.293-2.128-1.373zm18.729-6.086c-.255-.412.406-.814 1.468-.894 2.296-.173 2.498.298.463 1.08-.808.31-1.677.226-1.931-.186zm-14.601-10.164c0-.55.476-1 1.059-1 .582 0 .78.45.44 1s-.816 1-1.058 1c-.243 0-.441-.45-.441-1zm5.542-4.93c-.316-.513-.193-1.168.275-1.457.467-.288.85.13.85.931 0 1.687-.316 1.834-1.125.525zm-22.67-22.82c-1.244-1.586-1.209-1.621.378-.377.962.755 1.75 1.542 1.75 1.75 0 .823-.822.293-2.128-1.373zm70.86-15.374c.68-.683 1.486-.99 1.794-.683.308.308-.247.868-1.233 1.243-1.426.543-1.54.428-.56-.56zm182.87-74.709c-.283-.458.121-.833.898-.833.776 0 1.18.375.897.833-.284.458-.687.833-.897.833-.21 0-.614-.375-.897-.833zm-53.06-17.098c-.316-.512-.193-1.167.275-1.456.467-.288.85.13.85.931 0 1.687-.316 1.834-1.125.525zm53.33-26.819c-1.244-1.586-1.209-1.621.378-.377 1.665 1.306 2.195 2.127 1.372 2.127-.208 0-.995-.787-1.75-1.75zm-88.365-5.238c-.35-.567.05-.735.94-.393 1.733.665 2.05 1.381.612 1.381-.518 0-1.216-.445-1.552-.988zM28.21 538.97c-.919-1.486 1.397-3.944 3.1-3.29 2.192.84 1.777 4.333-.514 4.333-1.068 0-2.232-.47-2.586-1.043zm36.935-3.335c-.81-2.109.327-3.622 2.72-3.622 1.51 0 1.931.557 1.691 2.24-.373 2.614-3.556 3.611-4.411 1.382zm181.163-34.193c-1.633-1.633-2.083-6.117-.806-8.029 1.724-2.583 5.184-3.533 7.98-2.193 6.343 3.04 4.712 11.793-2.197 11.793-1.873 0-4.113-.707-4.977-1.571zm7.206-.985c2.76-1.933 2.843-4.572.219-6.947-1.656-1.499-2.438-1.616-4.5-.677-3.04 1.385-3.51 6.49-.746 8.1 2.31 1.346 2.442 1.334 5.027-.476zM62.81 488.379c-2.606-3.313-2.628-5.81-.073-8.365 4.303-4.303 11-1.397 11 4.772 0 5.94-7.215 8.313-10.927 3.593zm8.55-1.911c1.15-1.741 1.12-2.375-.192-4.25-1.916-2.736-5.996-2.884-7.395-.27-1.414 2.643-1.307 3.652.59 5.548 2.07 2.071 5.26 1.603 6.997-1.028zm13.79-74.946c-4.379-6.684 4.408-13.544 10.082-7.87 1.964 1.964 1.928 6.797-.066 8.79-2.532 2.532-8.089 2.021-10.016-.92zm7.653.457c2.955-1.581 2.602-6.703-.561-8.145-2.063-.94-2.844-.822-4.5.677-2.625 2.375-2.542 5.014.218 6.947 2.637 1.847 2.412 1.822 4.843.521zm1796.532-11.7c-1.434-1.435-.504-4.265 1.403-4.265 1.295 0 2 .667 2 1.893 0 1.9-2.283 3.491-3.403 2.372zM226.437 371.014c-.336-1.925-.9-5.75-1.25-8.5-1.423-11.13-3.246-12.65-17.288-14.413-4.03-.506-7.528-1.12-7.77-1.363-.244-.243 2.606-.75 6.333-1.124 3.726-.376 8.392-1.112 10.367-1.637 6.236-1.657 6.99-3.282 9.488-20.463.726-4.986.73-4.974 2.017 4.84.71 5.41 1.99 10.906 2.844 12.21 1.81 2.762 6.208 4.127 16.33 5.066 4 .372 7.113.834 6.919 1.029-.195.194-4.142.86-8.772 1.48s-9.406 1.5-10.615 1.957c-3.61 1.362-5.281 5.128-6.673 15.032-1.095 7.79-1.423 8.791-1.93 5.886zm5.22-22.099l3.04-2.247-2.89-1.758c-1.59-.967-3.201-2.736-3.581-3.932-.658-2.075-.827-2.009-3.662 1.43-1.635 1.984-3.727 3.614-4.65 3.623-1.108.011-.635.685 1.398 1.987 1.69 1.083 3.694 3.13 4.453 4.548 1.305 2.438 1.42 2.47 2.117.587.405-1.095 2.104-3.002 3.776-4.238zm-92.92 9.158c0-2.692 1.892-3.595 3.715-1.773 1.822 1.823.92 3.714-1.773 3.714-1.255 0-1.941-.686-1.941-1.94zm-48.83-54.229c.22-1.553.997-2.33 2.33-2.33 2.979 0 2.681 3.904-.33 4.33-1.938.275-2.274-.06-2-2zm1776.98-8.706c-1.954-14.909-3.33-16.33-17.115-17.689-3.869-.381-7.034-1.023-7.034-1.426s2.812-1.023 6.25-1.377c14.646-1.511 15.938-2.793 17.9-17.756l1.23-9.376 1.235 9c2.117 15.412 2.623 15.976 15.953 17.794 4.637.632 8.432 1.442 8.432 1.799s-3.255.97-7.232 1.362c-9.281.914-13.49 2.685-14.849 6.247-.587 1.54-1.624 6.848-2.304 11.798l-1.236 9zm7.01-18.209l2.267-1.213-2.207-.816c-1.214-.45-3.025-2.162-4.024-3.805l-1.818-2.99-1.71 2.894c-.94 1.592-2.6 3.176-3.688 3.522-1.089.345-1.98 1.017-1.98 1.493 0 .476.891 1.148 1.98 1.494 1.089.345 2.749 1.93 3.689 3.522l1.709 2.893 1.758-2.89c.967-1.59 2.778-3.437 4.024-4.104zM289.96 288.458c-2.671-1.871-3.041-7.482-.651-9.872 1.633-1.633 6.117-2.083 8.029-.806 1.328.887 3.4 4.673 3.4 6.214 0 1.782-4.74 6.02-6.732 6.02-1.003 0-2.824-.7-4.046-1.556zm7.206-2.015c3.007-3.007.966-7.429-3.428-7.429-4.03 0-5.757 3.196-3.548 6.567 1.827 2.79 4.694 3.144 6.976.862zm1412.644-12.064c-2.394-3.044-2.486-3.71-.923-6.68 1.504-2.856 2.791-3.65 5.946-3.67 5.54-.032 8.21 8.257 3.682 11.429-3.265 2.287-6.36 1.904-8.705-1.079zm8.55-1.911c1.15-1.741 1.12-2.375-.192-4.25-1.916-2.736-5.996-2.884-7.395-.27-1.414 2.643-1.307 3.652.59 5.548 2.07 2.071 5.26 1.603 6.997-1.028zm-67.956.88c-1.443-1.443-.625-4.334 1.227-4.334 2.286 0 3.382 2.325 1.829 3.878-1.284 1.284-2.105 1.407-3.056.456zM340.738 254.719c-1.855-.927-2.579-2.181-2.803-4.853-.379-4.497 1.77-6.852 6.252-6.852 3.94 0 5.884 2.016 5.884 6.101 0 5.008-4.784 7.881-9.333 5.604zm6.17-2.36c1.007-.91 1.83-2.26 1.83-3 0-1.565-3.536-5.345-5-5.345-.55 0-1.9.9-3 2s-2 2.45-2 3c0 1.383 3.741 5 5.17 5 .645 0 1.995-.744 3-1.655zm1174.496-1.011c-1.465-1.465-.621-4.334 1.275-4.334 2.552 0 3.535 1.722 2.022 3.544-1.32 1.59-2.268 1.818-3.297.79zm-1352.258-6.712c-.81-2.109.327-3.622 2.72-3.622 1.51 0 1.931.557 1.691 2.24-.373 2.614-3.556 3.611-4.411 1.382zm1536.258-26.288c-.366-.367-.666-1.492-.666-2.5 0-2.31 3.807-2.5 4.677-.233.82 2.136-2.408 4.335-4.01 2.733zm-1439.68-2.85c-1.468-1.77-.449-3.484 2.073-3.484 1.237 0 1.94.686 1.94 1.893 0 2.42-2.501 3.412-4.012 1.592zm-183.622-2.977c-.347-.903-.15-2.12.436-2.707 1.523-1.523 4.41-.13 4.012 1.936-.443 2.302-3.648 2.857-4.448.771zm1587.816-.757c.176-1.237.995-2.25 1.82-2.25.825 0 1.643 1.013 1.82 2.25.245 1.732-.174 2.25-1.82 2.25-1.647 0-2.066-.518-1.82-2.25zm184.486-10.416c-1.443-1.443-.625-4.334 1.227-4.334 2.286 0 3.382 2.325 1.829 3.878-1.284 1.284-2.105 1.407-3.056.456zm-1692.444-9.89c-2.671-1.871-3.041-7.482-.651-9.872 1.633-1.633 6.117-2.083 8.029-.806 1.328.887 3.4 4.673 3.4 6.214 0 1.782-4.74 6.02-6.732 6.02-1.003 0-2.824-.7-4.046-1.556zm7.281-2.448c2.673-2.953.682-6.996-3.447-6.996-4.087 0-5.829 3.173-3.604 6.567 1.936 2.956 4.617 3.12 7.051.43zm1389.184-13.641c-1.54-1.541-.647-4.355 1.382-4.355 1.556 0 1.99.54 1.75 2.172-.332 2.255-1.94 3.375-3.132 2.183zm319.677-.848c-.347-.903-.15-2.12.436-2.707 1.523-1.523 4.41-.13 4.012 1.936-.443 2.302-3.648 2.857-4.448.771zm-248.698-3.173c-1.465-1.465-.621-4.334 1.275-4.334 2.552 0 3.535 1.722 2.022 3.544-1.32 1.59-2.268 1.818-3.297.79zm-1239.68-13.85c-1.468-1.77-.449-3.484 2.073-3.484 1.237 0 1.94.686 1.94 1.893 0 2.42-2.501 3.412-4.012 1.592zm1270.181-18.484c-1.902-14.247-3.035-15.376-17.44-17.373-9.948-1.38-9.88-1.437 3.773-3.23 6.557-.86 10.35-2.875 11.599-6.157.557-1.466 1.57-6.732 2.25-11.702l1.235-9.038 1.23 9.245c.677 5.084 1.651 10.35 2.165 11.702 1.316 3.46 5.222 5.142 14.939 6.435 4.63.617 8.578 1.282 8.775 1.479.197.197-2.69.665-6.417 1.04-14.506 1.46-17.664 3.708-18.832 13.4-1.714 14.234-1.905 14.478-3.277 4.2zm6.902-17.522c1.745-.554 1.595-.929-1.57-3.913-1.924-1.815-3.501-3.923-3.503-4.683 0-.76-.878.052-1.947 1.805-1.068 1.752-2.916 3.707-4.106 4.344-2.14 1.145-2.132 1.176.857 2.994 1.662 1.01 3.336 2.83 3.722 4.045.679 2.139.76 2.111 2.658-.886 1.077-1.701 2.827-3.369 3.889-3.706zM105.394 140.366c-.91-9.575-2.37-14.117-5.117-15.918-1.299-.85-6.789-2.127-12.2-2.837-9.732-1.276-9.785-1.297-4.84-1.976 10.306-1.414 15.829-2.648 17.297-3.866 2.429-2.013 3.986-6.77 4.748-14.503.39-3.967 1.037-7.01 1.436-6.764.4.247 1.023 3.642 1.386 7.544 1.194 12.853 3.1 15 14.634 16.491 11.838 1.53 11.978 1.72 2.272 3.085-5.075.714-10.176 1.806-11.335 2.426-2.821 1.51-4.837 6.64-5.588 14.222-.901 9.1-1.951 9.918-2.693 2.096zm7.71-19.291c1.973-.73 1.92-.861-.944-2.342-1.668-.863-3.603-2.82-4.3-4.35l-1.267-2.78-1.488 3.073c-.819 1.69-2.663 3.608-4.1 4.262l-2.61 1.19 3.082 1.874c1.695 1.03 3.398 2.87 3.784 4.086.683 2.153.77 2.126 3.227-1.014 1.388-1.774 3.465-3.574 4.615-4zm1337.321 17.294c-1.54-1.541-.647-4.355 1.382-4.355 1.556 0 1.99.54 1.75 2.172-.332 2.255-1.94 3.375-3.132 2.183zm108 0c-1.54-1.541-.647-4.355 1.382-4.355 1.556 0 1.99.54 1.75 2.172-.332 2.255-1.94 3.375-3.132 2.183zm196.98-.021c-1.466-1.465-.622-4.334 1.274-4.334 2.552 0 3.535 1.722 2.022 3.544-1.32 1.59-2.268 1.818-3.297.79zm-1280.227-6.43c-.881-1.426 2.037-4.345 3.464-3.463 1.905 1.178 1.279 4.56-.845 4.56-1.068 0-2.246-.494-2.619-1.097zm871.782-6.46c-2.802-1.963-3.02-7.411-.394-9.789 2.48-2.245 6.742-2.084 9.172.345 2.675 2.676 2.521 5.57-.455 8.546-2.838 2.838-5.19 3.091-8.323.898zm6.949-2.099c3.65-3.303 1.311-7.77-3.753-7.167-3.454.412-4.847 3.765-2.787 6.707 1.78 2.541 4.063 2.702 6.54.46zm489.829.36c-1.855-.927-2.579-2.181-2.803-4.853-.378-4.497 1.77-6.852 6.252-6.852 3.94 0 5.884 2.016 5.884 6.101 0 5.008-4.784 7.881-9.333 5.604zm6.17-2.36c1.007-.91 1.83-2.46 1.83-3.443 0-1.66-3.453-4.902-5.223-4.902-1.126 0-4.777 3.822-4.777 5 0 1.383 3.741 5 5.17 5 .645 0 1.995-.744 3-1.655zm-343.895-34.1c-1.936-15.298-3.098-16.467-18.45-18.541l-9.325-1.26 10-1.242c6.528-.81 10.866-1.878 12.496-3.076 2.718-1.999 4.29-6.73 5.686-17.126l.874-6.5 1.274 9.5c1.928 14.365 2.89 15.283 18.17 17.323l9.5 1.269-9 1.127c-15.752 1.972-16.734 2.905-18.719 17.781l-1.334 10zm6.186-21.139c-1.195-.767-2.877-2.554-3.737-3.972l-1.565-2.578-1.19 2.612c-.655 1.437-2.216 3.162-3.47 3.833l-2.28 1.22 3.64 3.64 3.64 3.64 3.568-3.5 3.567-3.5zM385.725 79.5c-1.47-1.77-.45-3.485 2.072-3.485 1.237 0 1.94.686 1.94 1.893 0 2.42-2.501 3.412-4.012 1.592zm1417.013-2.485c-2.5-2.498-2.585-7.161-.172-9.345 3.954-3.578 11.172-.56 11.172 4.671 0 2.876-3.878 6.674-6.815 6.674-1.202 0-3.085-.9-4.185-2zm7.428-1.571c3.02-3.02 1.283-7.429-2.928-7.429-2.68 0-4.5 1.82-4.5 4.5 0 4.211 4.408 5.95 7.428 2.929zM701.102 68.52c-.347-.903-.15-2.12.436-2.707 1.523-1.523 4.41-.13 4.012 1.936-.443 2.302-3.648 2.857-4.448.771zm-445.698-4.173c-1.465-1.465-.622-4.334 1.274-4.334 2.553 0 3.536 1.722 2.023 3.544-1.32 1.59-2.269 1.818-3.297.79zm1127.021.02c-1.54-1.54-.647-4.354 1.382-4.354 1.556 0 1.99.54 1.75 2.172-.332 2.255-1.94 3.375-3.132 2.183zM674.05 46.228c-1.935-1.23-3.128-5.524-2.214-7.972.464-1.242 1.981-2.776 3.372-3.41 5.15-2.347 10.373 2.755 8.34 8.148-1.142 3.027-2.544 3.99-5.81 3.99-1.375 0-3.035-.34-3.688-.755zm7.868-3.71c.94-2.062.822-2.844-.677-4.5-.997-1.102-2.574-2.004-3.503-2.004-.93 0-2.507.902-3.504 2.004-2.694 2.977-.68 6.996 3.504 6.996 2.274 0 3.33-.63 4.18-2.496zm549.26-.6c-.881-1.426 2.037-4.345 3.464-3.463.602.373 1.096 1.55 1.096 2.618 0 2.124-3.382 2.751-4.56.845zm358.56-1.191c-3.122-1.571-4.002-7.568-1.482-10.088 2.063-2.064 7.837-2.107 9.526-.071 2.095 2.524 1.58 7.522-.989 9.602-2.675 2.167-3.696 2.247-7.055.557zm6.435-2.641c3.256-3.598-1.073-9.407-5.318-7.135-2.759 1.477-3.373 4.024-1.617 6.704 1.874 2.86 4.584 3.029 6.935.431zm-1024.769-.738c-1.465-1.465-.622-4.334 1.274-4.334 2.553 0 3.536 1.722 2.023 3.544-1.32 1.59-2.269 1.818-3.297.79zm837.334-3.334c-3.961-3.96-1.082-11 4.5-11 3.209 0 6.5 3.291 6.5 6.5 0 3.21-3.291 6.5-6.5 6.5-1.375 0-3.4-.9-4.5-2zm7.8-1.2c2.805-2.805.691-7.8-3.3-7.8-2.68 0-4.5 1.82-4.5 4.5 0 2.68 1.82 4.5 4.5 4.5 1.155 0 2.64-.54 3.3-1.2zm-278.36-13.896c-.881-1.426 2.037-4.345 3.464-3.463 1.905 1.178 1.279 4.56-.845 4.56-1.068 0-2.246-.494-2.619-1.097zm-373.218-1.46c-2.671-1.871-3.041-7.482-.651-9.872 3.54-3.54 11.429-.451 11.429 4.474 0 2.537-4.276 6.954-6.733 6.954-1.002 0-2.823-.7-4.045-1.556zm7.21-2.37c2.247-2.482 1.69-5.204-1.378-6.734-4.55-2.268-8.343 2.375-5.387 6.596 1.812 2.587 4.5 2.642 6.765.139zm-353.778-3.902c-2.196-2.428-2.104-7.455.174-9.517 5.673-5.134 13.855 2.664 9.116 8.688-2.483 3.157-6.831 3.545-9.29.829zm8.526-2.668c.94-2.062.822-2.844-.677-4.5-2.206-2.437-4.25-2.544-6.675-.349-2.242 2.03-2.317 3.714-.257 5.774 2.448 2.448 6.284 1.982 7.609-.925z" fill="#090909"/></svg>