<svg xmlns="http://www.w3.org/2000/svg" viewBox="0 0 271.00041 89.454527" height="95.42" width="289.07">
    <path d="M147.18 87.272c.211-1.437 1.317-2.448 3.235-2.958 3.791-1.008 4.552-2.357 4.57-8.11l.015-4.75h14v5.3c0 5.987 1.158 7.7 5.2 7.7 2.32 0 2.8.43 2.8 2.5v2.5h-15.07c-14.92 0-15.066-.021-14.75-2.182zM29.75 80.884c-.412-.42-.75-3.852-.75-7.628 0-7.889.527-8.4 7.57-7.343 4.817.722 6.489 2.64 4.73 5.427-.722 1.145-.624 2.216.336 3.68 2.131 3.254-.231 5.595-6.218 6.162-2.705.256-5.255.122-5.668-.298zm7.75-4.43c0-.824-1.012-1.643-2.25-1.819-1.731-.246-2.25.173-2.25 1.82 0 1.646.519 2.065 2.25 1.82 1.238-.177 2.25-.995 2.25-1.82zm.255-6.25c-.633-1.923-4.755-2.2-4.755-.319 0 1.021.903 1.57 2.584 1.57 1.62 0 2.43-.467 2.171-1.25zm9.815 9c.388-1.237 1.88-4.724 3.318-7.75 3.63-7.642 5.47-7.372 9.19 1.35C61.687 76.57 63 80.057 63 80.553c0 1.504-3.022 1.006-3.638-.6-.35-.91-1.861-1.5-3.846-1.5-1.799 0-3.83.676-4.516 1.5-1.995 2.405-4.262 1.909-3.43-.75zM57 75.037c0-1.212-1.316-3.581-1.99-3.581-.427 0-1.012.9-1.3 2-.387 1.483-.03 2 1.384 2 1.049 0 1.906-.189 1.906-.419zm12-1.508v-8.073l3.75.014c2.063.008 4.875.59 6.25 1.293 2.494 1.275 2.63 1.986 1.861 9.692-.082.825.189 2.288.602 3.25 1.269 2.955-3.292 2.218-4.645-.75-1.415-3.105-3.572-3.246-3.998-.26-.176 1.232-1.107 2.39-2.07 2.574-1.55.295-1.75-.59-1.75-7.74zm9-2.073c0-1.467-.666-2-2.5-2-1.833 0-2.5.533-2.5 2 0 1.466.667 2 2.5 2 1.834 0 2.5-.534 2.5-2zm10.418 8.644c-.286-.745-.385-4.233-.22-7.75l.302-6.394 3.557-.3c4.879-.41 8.943 1.28 8.943 3.716 0 1.08-.453 2.246-1.007 2.588-.622.384-.41 1.22.55 2.18 2.094 2.095 1.476 4.494-1.551 6.026-3.355 1.697-9.914 1.656-10.574-.066zm9.082-3.644c0-.893-1.112-1.629-2.75-1.817-2.239-.258-2.75.08-2.75 1.817 0 1.736.511 2.074 2.75 1.816 1.638-.188 2.75-.923 2.75-1.816zm-.745-6.25c-.633-1.924-4.755-2.2-4.755-.32 0 1.021.903 1.57 2.584 1.57 1.62 0 2.43-.467 2.171-1.25zM108 73.455v-8.1l5.75.3c4.312.224 5.75.675 5.75 1.8 0 1.011-1.22 1.6-3.75 1.81-4.607.381-4.936 1.948-.5 2.376 2.083.201 3.25.852 3.25 1.814 0 .96-1.167 1.612-3.25 1.813-4.436.428-4.107 1.995.5 2.376 2.53.21 3.75.799 3.75 1.81 0 1.125-1.438 1.576-5.75 1.8l-5.75.3v-8.1zm18 .073v-8.073l3.75.014c2.063.008 4.875.59 6.25 1.293 2.494 1.275 2.63 1.986 1.861 9.692-.082.825.189 2.288.602 3.25 1.269 2.955-3.292 2.218-4.645-.75-1.415-3.105-3.572-3.246-3.998-.26-.176 1.232-1.107 2.39-2.07 2.574-1.55.295-1.75-.59-1.75-7.74zm9-2.073c0-1.467-.666-2-2.5-2-1.833 0-2.5.533-2.5 2 0 1.466.667 2 2.5 2 1.834 0 2.5-.534 2.5-2zm47.7 8.82c-3.324-1.212-3.014-3.469.41-2.978 4.726.678 5.18.642 5.565-.439.214-.603-1.04-1.506-2.788-2.007-5.987-1.717-6.439-6.757-.783-8.734 3.165-1.107 8.063.74 7.292 2.748-.44 1.146-1.142 1.256-3.144.495-4.472-1.7-5.022.717-.632 2.779 4.672 2.195 5.58 5.361 2.215 7.719-2.575 1.803-4.117 1.882-8.135.418zm16.3-6.82c0-7.219.2-8.11 1.75-7.816 1.153.219 1.857 1.439 2.064 3.574.275 2.848.67 3.242 3.25 3.242 2.7 0 2.936-.287 2.936-3.574 0-2.865.347-3.506 1.75-3.236 1.48.285 1.75 1.488 1.75 7.81 0 6.321-.27 7.524-1.75 7.81-1.36.261-1.75-.348-1.75-2.737 0-2.733-.325-3.073-2.933-3.073-2.455 0-2.985.447-3.25 2.741-.191 1.653-1.011 2.873-2.067 3.073-1.55.294-1.75-.596-1.75-7.814zm24.017 6.714c-2.992-1.514-4.551-5.447-3.625-9.14.952-3.79 6.604-6.166 10.368-4.357 6.055 2.911 6.777 10.42 1.276 13.264-3.544 1.833-4.785 1.869-8.019.233zm7.576-5.227c1.082-4.31-3.379-7.301-6.393-4.287-1.293 1.293-1.62 5.046-.533 6.133.367.367 1.933.667 3.481.667 2.172 0 2.958-.574 3.445-2.513zM241 73.528v-8.073h3.453c7.288 0 11.03 4.087 7.99 8.727-.983 1.5-2.476 2.273-4.396 2.273-2.25 0-2.98.506-3.227 2.24-.176 1.231-1.107 2.39-2.07 2.573-1.55.295-1.75-.59-1.75-7.74zm8.814-2.323c.247-1.3-.33-1.75-2.24-1.75-1.936 0-2.574.512-2.574 2.07 0 1.57.54 1.992 2.24 1.75 1.232-.177 2.39-1.108 2.574-2.07zM5.93 76.87c-1.777-2.14.01-4.916 3.165-4.916 2.72 0 3.747 2.779 1.865 5.048-1.569 1.89-3.392 1.841-5.03-.132zM.022 44.205c.024-8.776 2.006-15.017 6.184-19.468 6.958-7.412 29.414-6.6 32.965 1.192 1.721 3.778.234 7.459-3.674 9.091C29.785 37.407 28 36.968 28 33.177c0-4.56-2.451-7.722-5.985-7.722-5.69 0-8 5.406-8.009 18.75L14 52.455H0l.022-8.25zM52 40.155c0-13.09-.522-14.7-4.77-14.7-1.884 0-2.303-.46-2.05-2.25.302-2.122.843-2.267 9.483-2.537l9.163-.286.666 3.036c.777 3.538 1.555 3.793 3.257 1.068 2.115-3.388 7.083-5.302 12.427-4.789C85.95 20.252 89 22.665 89 26.675c0 4.166-1.498 6.41-5.128 7.674-4.701 1.64-5.366 1.417-6.415-2.144-.788-2.677-1.52-3.305-4.15-3.56-4.577-.443-6.54 3.717-7.111 15.06l-.44 8.75H52v-12.3zm43.667 11.633c-1.215-1.215-.69-12.89.806-17.93 2.654-8.937 10.994-14.403 21.975-14.403 7.672 0 13.976 2.508 17.938 7.137 4.215 4.924 5.817 10.496 5.421 18.863l-.307 6.5-6.614.292-6.614.293-.476-9.793c-.65-13.403-2.775-17.292-9.443-17.292-6.49 0-8.775 4.591-8.82 17.727l-.033 9.26-6.583.007c-3.62.003-6.883-.294-7.25-.66zM155 40.526c0-12.66-.811-15.071-5.071-15.071-1.39 0-1.929-.698-1.929-2.5 0-2.482.065-2.5 9.025-2.5h9.025l.6 3c.33 1.65.822 3 1.093 3 .272 0 1.996-1.32 3.833-2.933 7.735-6.791 21.153-4.218 25.938 4.975 2.044 3.928 3.722 14.9 3.007 19.667l-.643 4.29h-13.69l-.344-9.93c-.388-11.2-2.26-15.298-7.257-15.892-6.595-.784-9.571 4.832-9.581 18.073l-.006 7.75h-14v-11.93zm59 .084c0-10.206-.253-12.075-1.828-13.5-1.006-.91-2.806-1.655-4-1.655-1.657 0-2.172-.6-2.172-2.534v-2.534l10.75.284 10.75.284.276 15.75.275 15.75H214V40.61zm31-1.155v-13h-3.07c-2.585 0-3.018-.344-2.75-2.183.208-1.416 1.31-2.446 3.134-2.93 3.97-1.056 5.734-2.762 7.896-7.637 1.691-3.816 2.237-4.25 5.337-4.25H259v11h6c6 0 6 0 6 3s0 3-6 3h-6v26h-14v-13zM214.055 9.797C210.411 5.164 213.51 0 219.934 0 224.712 0 228 2.671 228 6.553c0 5.96-9.982 8.282-13.945 3.244z" fill="#0a0a0a"/>
</svg>
