<svg xmlns="http://www.w3.org/2000/svg" viewBox="0 0 304.43304 123.24137">
    <path d="M242.282 121.913c-4.542-1.975-6.63-6.568-6.11-13.446.826-10.956 6.066-17.079 14.622-17.086 3.452-.003 4.918.587 7.25 2.92 3.664 3.663 3.92 7.076.531 7.076-1.713 0-2.568-.705-3.015-2.485-.391-1.558-1.577-2.724-3.182-3.127-6.073-1.524-10.634 4.251-10.808 13.687-.122 6.631 1.367 8.931 5.77 8.91 4.05-.02 5.314-.892 6.156-4.245.615-2.45.418-2.74-1.862-2.74-2.925 0-3.939-1.128-3.063-3.41.455-1.186 2.004-1.59 6.097-1.59h5.487l-.69 5.25c-.935 7.13-2.52 9.266-7.875 10.615-5.485 1.381-5.368 1.385-9.308-.329zM42.91 107.127l2.648-15.25 5.454-.322c8.074-.476 12.81 1.234 14.479 5.228 3.338 7.99-3.276 14.571-14.66 14.588l-3.635.007-.687 5.5c-.647 5.182-.847 5.5-3.467 5.5h-2.78l2.648-15.25zm16.476-2.661c1.023-1.131 1.597-3.071 1.405-4.75-.305-2.66-.648-2.858-5.44-3.137-5.03-.292-5.127-.244-5.75 2.875-1.287 6.434-1.025 6.923 3.71 6.923 3.008 0 4.877-.588 6.075-1.911zm13.046 15.661c.277-1.237 1.205-6.525 2.063-11.75 2.357-14.359 1.614-13.343 9.297-12.726 5.613.45 6.964.943 8.965 3.27 2.85 3.314 2.361 6.86-1.414 10.232-2.53 2.26-2.537 2.307-.963 6.928 2.1 6.159 2.04 6.482-1.12 6.112-2.263-.264-2.948-1.095-4.176-5.066-1.193-3.856-1.9-4.75-3.76-4.75-1.992 0-2.375.649-2.953 5-.622 4.694-.84 5-3.553 5-2.48 0-2.819-.32-2.386-2.25zm15.016-13.375c.893-.893 1.488-2.58 1.321-3.75-.238-1.666-1.113-2.192-4.053-2.435-3.063-.254-3.753.021-3.764 1.5-.008.995-.285 2.823-.616 4.06-.53 1.973-.228 2.25 2.442 2.25 1.675 0 3.776-.731 4.67-1.625zm13.887 10.875c.353-2.612 1.361-8.687 2.24-13.5 1.484-8.12 1.77-8.75 3.995-8.75 2.94 0 2.947.234.396 15-1.093 6.325-1.99 11.613-1.994 11.75-.004.138-1.192.25-2.642.25-2.568 0-2.62-.122-1.995-4.75zm14.635 4c.002-.412 1.127-7.027 2.5-14.698 1.373-7.672 2.496-14.34 2.496-14.817 0-.477 1.233-.725 2.74-.551 2.438.281 3.23 1.447 7.195 10.593 2.555 5.894 4.732 9.733 5.105 9 .358-.702 1.205-4.652 1.881-8.777 1.746-10.645 1.896-11 4.646-11 1.338 0 2.43.338 2.429.75-.002.413-1.128 7.027-2.5 14.698-1.373 7.672-2.496 14.31-2.496 14.75 0 .441-1.238.795-2.75.787-2.532-.014-3.108-.841-7.25-10.414-2.475-5.719-4.775-9.874-5.11-9.234-.337.64-1.17 4.734-1.854 9.099-.683 4.364-1.468 8.527-1.746 9.25-.525 1.369-5.293 1.878-5.286.564zm41.996-.557c0-.719.9-6.206 2-12.193 1.1-5.987 2-11.249 2-11.693 0-.444-1.774-.807-3.941-.807-4.244 0-5.419-.9-4.455-3.41.508-1.325 2.51-1.59 12.003-1.59h11.393v2.5c0 2.318-.348 2.5-4.78 2.5h-4.78l-1.792 10.75c-2.567 15.404-2.514 15.25-5.257 15.25-1.315 0-2.391-.588-2.391-1.307zm24.004.557c.002-.412 1.127-7.027 2.5-14.698 1.373-7.672 2.496-14.31 2.496-14.75 0-.441 1.125-.802 2.5-.802 3.078 0 3.088.304.493 15.075-2.907 16.556-2.689 15.925-5.512 15.925-1.365 0-2.48-.337-2.477-.75zm17 0c.002-.412 1.127-7.027 2.5-14.698 1.373-7.672 2.496-14.34 2.496-14.817 0-.477 1.233-.725 2.74-.551 2.438.281 3.23 1.447 7.195 10.593 2.555 5.894 4.732 9.733 5.105 9 .358-.702 1.205-4.652 1.881-8.777 1.746-10.645 1.896-11 4.646-11 1.338 0 2.43.338 2.429.75-.002.413-1.128 7.027-2.5 14.698-1.373 7.672-2.496 14.31-2.496 14.75 0 .441-1.238.795-2.75.787-2.532-.014-3.108-.841-7.25-10.414-2.475-5.719-4.775-9.874-5.11-9.234-.337.64-1.17 4.734-1.854 9.099-.683 4.364-1.468 8.527-1.746 9.25-.525 1.369-5.293 1.878-5.286.564zM.001 89.721c.017-.464 3.112-11.869 6.877-25.344l6.845-24.5-2.878-.313c-3.953-.43-3.642-2.187.387-2.187 3.005 0 3.404-.39 5-4.883 3.296-9.282 13.125-15.117 25.462-15.117 4.356 0 5.823.46 7.808 2.445 3.95 3.949.728 9.555-5.49 9.555-6.19 0-8.032-4.256-3.795-8.767l2.25-2.396-3 .675c-5.912 1.328-6.532 1.665-8.866 4.806-1.893 2.548-5.634 11.492-5.634 13.47 0 .239 4.958.264 11.017.056 7.918-.27 10.895-.059 10.584.754-1.439 3.749-9.601 32.491-9.601 33.808 0 3.221 3.03 1.46 5.434-3.156 2.652-5.095 3.463-4.333 1.187 1.114-2.747 6.576-11.152 9.962-15.05 6.065-2.425-2.426-1.912-6.955 2.429-21.429 2.2-7.336 4-13.712 4-14.17 0-.456-2.364-.83-5.253-.83h-5.252L17.659 64.1c-3.742 13.598-6.891 24.797-6.998 24.887-.841.713-10.687 1.391-10.66.735zm86.445-4.678c-8.736-2.867-13.242-8.58-12.137-15.387.762-4.694 2.308-6.279 6.125-6.279 5.23 0 7.033 2.912 7.033 11.357v7.143l5.404.308c9.408.535 15.383-3.872 16.644-12.277 1.101-7.349-1.127-13.858-8.376-24.462-9.656-14.125-11.598-20.396-9.1-29.39 1.41-5.077 7.364-11.526 12.928-14.002 6.26-2.785 16.856-2.73 23.284.12 6.947 3.08 9.519 9.816 6.198 16.238-1.869 3.614-5.866 4.818-9.413 2.837-3.438-1.92-3.96-7.55-1.194-12.858 2.372-4.55 1.819-5.014-5.972-5.014-4.222 0-5.47.493-8.668 3.423-3.662 3.357-3.735 3.566-3.735 10.75v7.327l6.754 10.133c10.894 16.342 13.092 23.253 10.362 32.58-3.217 10.992-12.534 17.83-25.116 18.436-4.045.195-8.697-.22-11.021-.983zm44.593-10.3c-1.14-1.45-2.066-3.587-2.058-4.75.008-1.164 1.808-8.18 4-15.59 2.192-7.411 3.986-13.824 3.986-14.25 0-.427-1.35-.776-3-.776s-3-.45-3-1 1.562-1 3.472-1c3.341 0 3.531-.204 5.045-5.412l1.574-5.413 5.018-.69c2.76-.38 5.216-.493 5.457-.252.24.24-.234 2.649-1.054 5.352-1.997 6.584-2.062 6.415 2.488 6.415 2.2 0 4 .45 4 1s-2.006 1-4.458 1h-4.457l-1.978 6.75c-4.983 17.003-7.107 24.763-7.107 25.957 0 .714 1.124 1.293 2.513 1.293 1.988 0 2.97-.94 4.7-4.5 2.64-5.435 4.434-6.023 2.286-.75-3.582 8.797-12.922 12.342-17.427 6.615zm27.113 2.003c-3.524-1.551-3.273-5.225 1.315-19.264 2.475-7.572 4.5-14.518 4.5-15.436 0-3.287-3.007-1.583-5.434 3.081-2.81 5.396-3.38 4.325-.942-1.768 3.645-9.112 16.376-9.589 16.376-.614 0 1.774-1.8 8.584-4 15.132-4.327 12.878-4.764 15.5-2.59 15.5 3.712 0 11.246-13.468 15.746-28.146l2.344-7.645 5-.495c2.75-.272 5.178-.329 5.395-.126.218.204-1.695 7.702-4.25 16.664-2.555 8.961-4.645 17.071-4.645 18.02 0 3.627 3.174 1.593 5.499-3.522 2.57-5.654 3.468-4.31 1.026 1.536-2.932 7.018-11.039 10.12-15.002 5.74-1.75-1.934-1.723-6.194.073-11.688.33-1.011-.745.412-2.391 3.162-4.326 7.228-7.323 9.669-12.393 10.09-2.372.197-4.904.097-5.627-.221zm43.604-2.426c-2.885-2.885-3.027-3.387-2.523-8.941 1.023-11.28 8.503-23.042 17.234-27.1 4.533-2.106 9.552-2.45 11.233-.769.845.845 1.528-.239 2.683-4.25 2.426-8.431 2.4-10.215-.166-11.356-3.211-1.429-2.78-2.524 1-2.543 1.787-.009 5.797-.615 8.91-1.347 3.9-.918 5.54-.991 5.276-.235-1.781 5.094-14.436 52.104-14.436 53.629 0 3.635 3.065 2.077 5.14-2.614 2.384-5.39 3.286-5.416 1.638-.046-3.079 10.032-16.778 11.896-16.778 2.283 0-2.637-.084-2.602-4.329 1.829-3.625 3.783-4.937 4.517-8.077 4.517-2.847 0-4.483-.735-6.805-3.057zm15.116-3.55c4.716-5.995 12.116-27.29 10.735-30.889-.811-2.113-3.905-1.87-6.979.548-5.45 4.286-11.927 23.769-10.196 30.665.774 3.085 3.882 2.929 6.44-.324zm29.666 5.036c-2.543-2.543-1.849-7.516 2.929-20.983 2.475-6.977 4.5-13.082 4.5-13.566s-.823-.88-1.83-.88c-1.215 0-2.613 1.676-4.169 4.997-2.828 6.039-3.956 5.792-1.61-.352 2.161-5.658 4.474-7.683 9.554-8.364 4.648-.624 8.055 1.528 8.055 5.088 0 1.132-2.12 8.468-4.71 16.302-2.59 7.833-4.41 14.543-4.043 14.91 1.405 1.405 3.977-.743 5.485-4.58.864-2.2 1.959-4 2.433-4 .474 0 .14 1.687-.743 3.75a627.807 627.807 0 0 0-2.134 5.036c-1.519 3.685-10.872 5.487-13.717 2.642zm27.429.292c-4.023-2.01-6.208-7.314-5.617-13.638.659-7.04 5.646-17.136 10.412-21.072 7.075-5.844 18.069-6.604 23.073-1.595 2.366 2.368 2.628 3.365 2.596 9.86-.077 15.35-10.515 27.667-23.464 27.687-2.475.004-5.625-.555-7-1.242zm9.548-1.486c1.976-1.385 5.349-6.9 7.395-12.09 2.45-6.215 4.475-18.344 3.627-21.722-1.203-4.794-6.242-2.063-10.038 5.44-4.077 8.06-7.142 22.09-5.88 26.914.575 2.199 2.866 2.88 4.896 1.458zM51.043 73.127c6.684-23.205 9.003-32.005 8.551-32.456-1.314-1.314-3.89 1.044-5.762 5.277-2.549 5.763-3.742 5.013-1.474-.926 2.14-5.604 4.472-7.683 9.352-8.337 4.783-.642 7.255 1.406 7.26 6.014l.005 3.178 1.91-3.133c3.883-6.368 10.187-8.262 14.186-4.263 3.869 3.869.147 11.896-5.515 11.896-4.752 0-6.059-4.862-2.517-9.365 3.353-4.262.408-3.014-3.408 1.444-3.74 4.37-7.09 12.436-10.658 25.671l-2.225 8.25H50.106l.937-3.25zm206.124-44.95c-4.717-4.717 4.78-12.633 10.675-8.898 1.937 1.226 1.709 5.795-.405 8.131-2.021 2.233-8.333 2.705-10.27.767z"/>
</svg>
