<svg xmlns="http://www.w3.org/2000/svg" viewBox="0 0 672.59339 145.10682" height="154.78" width="717.43">
    <path d="M4.12 143.867c-2.07-1.31 6.483-18.177 36.244-71.468C61.79 34.035 80.13 1.773 81.121.705c1.132-1.22 2.881-.842 4.7 1.014 2.52 2.57-2.201 12.06-36.246 72.843-21.529 38.437-39.954 70.142-40.944 70.454-.99.312-3.02-.205-4.51-1.149zm155.559-1.218c-.612-.612.545-10.912 2.57-22.89 5.649-33.403 4.346-30.905 16.12-30.905 12.4 0 21.268 4.228 22.954 10.944 1.624 6.47-1.371 14.188-7.05 18.166-4.409 3.088-4.431 3.324-1.142 11.936 4.476 11.72 4.274 14.136-1.117 13.355-3.356-.487-5.217-3.053-7.456-10.283-2.578-8.329-3.714-9.635-8.372-9.635-4.814 0-5.588 1.026-7.25 9.619-1.695 8.757-5.846 13.104-9.257 9.693zm28.242-30.584c5.212-3.65 6-12.063 1.3-13.866-4.464-1.713-12.604-1.54-13.647.29-.477.836-1.485 4.944-2.24 9.127-1.32 7.318-1.155 7.607 4.353 7.607 3.15 0 7.755-1.421 10.234-3.158zm38.991 26.857c0-4.662 2.289-18.963 6.309-39.42l2.092-10.648h16.084c14.731 0 16.083.34 16.083 4.056 0 3.598-1.352 4.057-11.953 4.057-12.426 0-14.416 1.423-14.416 10.308 0 3.325 1.499 3.891 10.29 3.891 8.706 0 10.188.547 9.617 3.55-.52 2.732-3.076 3.69-11.094 4.155-8.76.51-10.61 1.318-11.617 5.071-2.866 10.688-2.052 11.565 10.728 11.565 10.982 0 11.892.338 10.92 4.057-.948 3.624-2.767 4.057-17.052 4.057-15.366 0-15.99-.184-15.99-4.699zm62.894 2.445c.007-1.55 1.827-13.314 4.044-26.144 2.216-12.83 4.036-24.011 4.043-24.848.024-2.67 18.258-1.631 24.06 1.37 14.659 7.58 13.516 35.004-1.93 46.318-6.791 4.973-30.237 7.537-30.217 3.304zm27.004-11.691c2.037-2.038 4.57-7.556 5.627-12.264 2.667-11.87-.93-19.205-9.839-20.066-3.618-.35-6.58-.35-6.58 0-.003.35-1.37 8.394-3.04 17.877-1.67 9.483-3.039 18.04-3.04 19.016-.004 2.916 12.876-.568 16.872-4.563zm43.57 12.861c-.596-.596.625-10.865 2.715-22.82 6.097-34.889 4.107-31.58 18.233-30.3 7.46.676 13.734 2.484 16.12 4.643 5.001 4.526 5.017 13.445.031 17.957-3.599 3.257-3.649 3.902-.706 9.03 4.434 7.726.153 16.573-9.64 19.924-7.25 2.48-24.81 3.509-26.753 1.566zm25.567-9.68c2.227-1.628 3.354-4.558 2.923-7.606-.562-3.982-2.054-5.086-7.586-5.615-7.723-.737-10.276 1.808-10.324 10.293-.026 4.769.796 5.578 5.667 5.578 3.133 0 7.328-1.192 9.32-2.65zm2.908-23.473c1.492-.945 2.405-3.898 2.029-6.56-.571-4.039-1.85-4.842-7.701-4.842-6.287 0-7.157.685-8.365 6.592-1.293 6.322-1.089 6.59 4.988 6.561 3.485-.017 7.557-.805 9.05-1.75zm38.883 31.787c.007-1.442 1.827-13.118 4.043-25.948 2.217-12.83 4.036-24.011 4.044-24.848.014-1.677 6.864-2.108 8.44-.532.545.545-.633 9.9-2.617 20.792-1.984 10.89-3.646 20.942-3.694 22.337-.06 1.735 3.48 2.535 11.218 2.535 9.672 0 11.207.513 10.627 3.55-.564 2.952-3.318 3.65-16.376 4.142-11.79.445-15.695-.06-15.685-2.028zm58.81.208c0-1.233 6.002-13.556 13.338-27.384 9.925-18.707 14.327-25.141 17.203-25.141 4.24 0 4.046-.564 10.044 29.128 4.999 24.744 4.996 25.639-.067 25.639-2.941 0-4.453-1.728-5.325-6.086-1.154-5.772-1.73-6.085-11.2-6.085-8.965 0-10.334.619-13.438 6.073-3.324 5.841-10.555 8.483-10.555 3.856zm31.305-27.677c-.769-5.3-1.676-9.954-2.016-10.344-.34-.39-2.977 3.946-5.86 9.635l-5.241 10.344h14.516l-1.399-9.635zm43.122 28.397c-.476-.836 1.124-12.93 3.555-26.876l4.42-25.355 11.423.046c9.085.036 12.438 1 16.384 4.706 13.697 12.867 4.678 41.575-14.758 46.974-8.555 2.376-19.808 2.647-21.024.505zm21.98-9.015c6.826-3.11 11.1-11.453 11.1-21.672 0-9.642-4.47-14.912-11.914-14.048-4.83.56-5.542 1.828-7.764 13.802-4.553 24.541-3.437 27.392 8.578 21.918zm47.624 8.083c.007-1.44 1.827-13.114 4.043-25.944 2.217-12.83 4.036-24.011 4.044-24.848.008-.837 7.87-1.521 17.472-1.521 15.086 0 17.29.436 16.227 3.208-.677 1.765-1.231 3.59-1.231 4.057 0 .467-5.37.848-11.934.848-10.661 0-12.065.487-13.157 4.564-2.38 8.878-1.683 9.635 8.863 9.635 8.79 0 10.142.541 10.142 4.057 0 3.554-1.352 4.057-10.902 4.057-10.589 0-10.94.183-12.17 6.339-.698 3.486-1.268 7.137-1.268 8.113s5.543 1.775 12.319 1.775c10.638 0 12.226.484 11.64 3.55-.569 2.979-3.364 3.644-17.39 4.139-12.606.444-16.708-.054-16.698-2.029zm-565.94-33.909V86.825h9.691c5.488 0 11.646 1.37 14.2 3.158 5.35 3.748 5.95 12.17 1.239 17.376-3.018 3.335-2.942 4.14.987 10.498 2.34 3.787 3.66 7.482 2.93 8.211-3.151 3.152-6.934.772-10.79-6.788-5.3-10.387-9.691-10.605-10.527-.524-.44 5.304-1.699 7.792-4.18 8.262-3.19.605-3.55-1.396-3.55-19.76zm19.96-7.005c.79-4.164-2.725-7.263-8.296-7.311-2.616-.023-3.55 1.605-3.55 6.188 0 5.585.568 6.155 5.561 5.579 3.52-.407 5.826-2.041 6.285-4.456zM.65 57.901c-.602-1.57-.828-10.538-.5-19.927l.594-17.072 12.677-.604c11.62-.553 12.678-.257 12.678 3.55C26.1 27.34 24.81 28 17.986 28c-6.761 0-8.113.677-8.113 4.057 0 3.284 1.352 4.057 7.099 4.057s7.1.773 7.1 4.057c0 3.27-1.353 4.057-6.978 4.057-6.595 0-7.011.415-7.606 7.59C8.836 59.681 2.902 63.765.65 57.9zm158.633-10.123c.596-3.625 2.592-15.263 4.437-25.862l3.353-19.27 16.985-.593c14.982-.523 16.835-.205 15.72 2.702-.696 1.812-1.265 3.676-1.265 4.142 0 .467-5.376.849-11.948.849h-11.949l-.828 7.1-.83 7.099h9.736c8.295 0 9.734.584 9.734 3.95 0 3.336-1.657 4.047-10.649 4.564l-10.649.613-1.807 10.65c-1.566 9.23-2.427 10.649-6.464 10.649-4.126 0-4.535-.754-3.576-6.593zm64.406-2.028c.744-4.741 2.802-16.608 4.573-26.37l3.221-17.748h12.927c10.223 0 13.776.849 16.984 4.057 6.032 6.032 5.264 15.5-1.792 22.092l-5.85 5.464 3.82 10.056c2.1 5.53 3.82 10.284 3.82 10.563.001.279-2.206.507-4.906.507-4.088 0-5.47-1.694-8.276-10.142-2.764-8.322-4.221-10.142-8.116-10.142-3.731 0-5.03 1.41-6.074 6.592-2.438 12.117-3.301 13.692-7.505 13.692-3.777 0-4.049-.83-2.826-8.621zm29.186-22.211c1.339-1.339 2.434-4.99 2.434-8.114 0-5.245-.602-5.68-7.877-5.68-6.454 0-8.098.825-9.1 4.565-2.581 9.631-1.638 11.663 5.415 11.663 3.682 0 7.79-1.095 9.128-2.434zm34.888 29.604c0-.675 6.002-12.541 13.338-26.37 11.016-20.764 14.132-25.14 17.9-25.14 4.221 0 4.893 1.781 8.981 23.833 5.362 28.917 5.361 28.905.51 28.905-2.678 0-4.312-1.9-5.231-6.085-1.254-5.71-1.926-6.086-10.88-6.086-8.453 0-9.955.696-13.139 6.086-2.032 3.44-5.307 6.085-7.536 6.085-2.169 0-3.943-.553-3.943-1.228zm32.433-21.592c-.013-1.394-.61-6.092-1.328-10.44l-1.306-7.905-4.666 8.92c-6.027 11.52-5.981 11.96 1.237 11.96 3.528 0 6.076-1.065 6.063-2.535zm43.763 17.242c.574-3.068 2.65-14.706 4.614-25.863 3.364-19.116 3.852-20.284 8.474-20.284 4.219 0 5.896 2.342 11.99 16.735 3.898 9.204 7.66 16.734 8.361 16.734.701 0 2.429-7.759 3.84-17.241 2.377-15.978 2.912-17.242 7.298-17.242 5.306 0 5.378-2.96-.786 32.455-3.11 17.868-3.697 19.27-8.08 19.27-3.98 0-5.879-2.648-12.026-16.778-4.015-9.227-7.922-16.073-8.684-15.213-.761.86-2.553 8.638-3.98 17.285-2.375 14.375-3.002 15.72-7.33 15.72-4.065 0-4.587-.789-3.69-5.578zm82.942.599c-9.091-9.092-5.944-32.614 5.814-43.453 7.851-7.238 20.526-7.05 26.934.4 5.993 6.967 6.442 13.549.924 13.549-2.307 0-5.054-2.318-6.611-5.578-6.451-13.501-20.586-4.608-22.967 14.449-1.664 13.314.58 17.498 9.385 17.498 3.938 0 6.853-1.622 9.113-5.07 3.69-5.634 10.97-6.876 10.97-1.873 0 1.759-2.669 5.866-5.93 9.128-7.89 7.89-20.266 8.315-27.632.95zm71.97 1.224c-6.408-5.19-7.816-24.572-2.516-34.64 8.123-15.432 25.211-20.19 34.35-9.565 8.95 10.405 5.46 34.252-6.376 43.562-7.005 5.511-19.07 5.815-25.458.643zm21.208-7.47c3.307-3.307 7.29-15.46 7.31-22.3.016-5.94-5.645-13.129-10.339-13.129-10.43 0-19.685 21.781-14.289 33.626 2.636 5.785 12.327 6.794 17.318 1.803zm44.977 5.647c.574-3.068 2.646-14.706 4.605-25.863 3.25-18.51 3.978-20.344 8.323-20.97 4.24-.61 4.64-.056 3.656 5.071-.608 3.167-2.723 15.113-4.7 26.549-3.336 19.304-3.927 20.79-8.26 20.79-3.992 0-4.517-.806-3.624-5.577zm48.459.599c-6.413-6.413-6.475-11.249-.144-11.249 3.179 0 5.209 1.435 5.93 4.189.906 3.469 2.428 4.079 8.857 3.55 6.667-.549 7.849-1.389 8.378-5.953.52-4.49-.582-5.794-7.1-8.404-15.616-6.253-19.335-18.278-8.21-26.548 8.265-6.143 19.114-5.524 25.098 1.434 2.645 3.074 4.809 6.908 4.809 8.519 0 4.496-8.326 3.57-9.537-1.06-1.461-5.587-7.98-7.103-13.89-3.232-7.946 5.207-6.042 9.26 6.757 14.38 13.475 5.392 16.61 15.399 7.634 24.374-7.034 7.034-21.548 7.034-28.582 0z" fill="#0d0d0d"/>
</svg>
