<?xml version="1.0" encoding="UTF-8"?><!DOCTYPE svg PUBLIC "-//W3C//DTD SVG 1.1//EN" "http://www.w3.org/Graphics/SVG/1.1/DTD/svg11.dtd"><svg xmlns="http://www.w3.org/2000/svg"><symbol id="icon-arrow-right-c" viewBox="0 0 512 512">
    <path d="M322.7 128.4l100.3 105c6 5.8 9 13.7 9 22.4s-3 16.5-9 22.4L322.7 383.6c-11.9 12.5-31.3 12.5-43.2 0-11.9-12.5-11.9-32.7 0-45.2l48.2-50.4h-217c-17 0-30.7-14.3-30.7-32s13.7-32 30.6-32h217l-48.2-50.4c-11.9-12.5-11.9-32.7 0-45.2 12-12.5 31.3-12.5 43.3 0z"/>
</symbol><symbol id="icon-bag" viewBox="0 0 512 512">
    <path d="M448 160h-64v-4.5C384 87 329 32 260.5 32h-8C184 32 128 87 128 155.5v4.5H64L32 480h448l-32-320zm-288-4.5c0-50.7 41.8-91.5 92.5-91.5h8c50.7 0 91.5 40.8 91.5 91.5v4.5H160v-4.5zM67.8 448l24.9-256H128v36.3c-9.6 5.5-16 15.9-16 27.7 0 17.7 14.3 32 32 32s32-14.3 32-32c0-11.8-6.4-22.2-16-27.7V192h192v36.3c-9.6 5.5-16 15.9-16 27.7 0 17.7 14.3 32 32 32s32-14.3 32-32c0-11.8-6.4-22.2-16-27.7V192h35.4l24.9 256H67.8z"/>
</symbol><symbol id="icon-ios-arrow-forward" viewBox="0 0 512 512">
    <path d="M160 128.4L192.3 96 352 256 192.3 416 160 383.6 287.3 256z"/>
</symbol><symbol id="icon-ios-arrow-thin-left" viewBox="0 0 512 512">
    <path d="M189.8 349.7c3.1-3.1 3-8 0-11.3L123.4 264H408c4.4 0 8-3.6 8-8s-3.6-8-8-8H123.4l66.3-74.4c2.9-3.4 3.2-8.1.1-11.2-3.1-3.1-8.5-3.3-11.4-.1 0 0-79.2 87-80 88S96 253.1 96 256s1.6 4.9 2.4 5.7 80 88 80 88c1.5 1.5 3.6 2.3 5.7 2.3s4.1-.8 5.7-2.3z"/>
</symbol><symbol id="icon-ios-arrow-thin-right" viewBox="0 0 512 512">
    <path d="M322.2 349.7c-3.1-3.1-3-8 0-11.3l66.4-74.4H104c-4.4 0-8-3.6-8-8s3.6-8 8-8h284.6l-66.3-74.4c-2.9-3.4-3.2-8.1-.1-11.2 3.1-3.1 8.5-3.3 11.4-.1 0 0 79.2 87 80 88s2.4 2.8 2.4 5.7-1.6 4.9-2.4 5.7-80 88-80 88c-1.5 1.5-3.6 2.3-5.7 2.3s-4.1-.8-5.7-2.3z"/>
</symbol><symbol id="icon-ios-contact-outline" viewBox="0 0 512 512">
    <path d="M256 48C141.1 48 48 141.1 48 256s93.1 208 208 208 208-93.1 208-208S370.9 48 256 48zm0 17.3c105.1 0 190.7 85.5 190.7 190.7 0 46.5-16.7 89.1-44.4 122.2-20-8.2-65.9-24.1-92.9-32.1-2.4-.7-2.7-.9-2.7-10.7 0-8.1 3.3-16.3 6.6-23.3 3.6-7.5 7.7-20.2 9.2-31.6 4.2-4.9 10-14.5 13.6-32.9 3.2-16.2 1.7-22.1-.4-27.6-.2-.6-.5-1.2-.6-1.7-.8-3.8.3-23.5 3.1-38.8 1.9-10.5-.5-32.8-14.9-51.3-9.1-11.7-26.6-26-58.5-28h-17.5c-31.4 2-48.8 16.3-58 28-14.5 18.5-16.9 40.8-15 51.3 2.8 15.3 3.9 35 3.1 38.8-.2.7-.4 1.2-.6 1.8-2.1 5.5-3.7 11.4-.4 27.6 3.7 18.4 9.4 28 13.6 32.9 1.5 11.4 5.7 24 9.2 31.6 2.6 5.5 3.8 13 3.8 23.6 0 9.9-.4 10-2.6 10.7-28.1 8.3-72.6 24.3-90.4 32-27.9-33.2-44.7-75.9-44.7-122.5 0-105.1 85.6-190.7 190.7-190.7z"/>
</symbol><symbol id="icon-ios-search-strong" viewBox="0 0 512 512">
    <path d="M344.5 298c15-23.6 23.8-51.6 23.8-81.7 0-84.1-68.1-152.3-152.1-152.3C132.1 64 64 132.2 64 216.3c0 84.1 68.1 152.3 152.1 152.3 30.5 0 58.9-9 82.7-24.4l6.9-4.8L414.3 448l33.7-34.3-108.5-108.6 5-7.1zm-43.1-166.8c22.7 22.7 35.2 52.9 35.2 85s-12.5 62.3-35.2 85c-22.7 22.7-52.9 35.2-85 35.2s-62.3-12.5-85-35.2c-22.7-22.7-35.2-52.9-35.2-85s12.5-62.3 35.2-85c22.7-22.7 52.9-35.2 85-35.2s62.3 12.5 85 35.2z"/>
</symbol></svg>