<svg xmlns="http://www.w3.org/2000/svg" viewBox="0 0 744.326 158.05324" height="168.59" width="793.95">
    <path d="M0 149.292c0-4.818.309-8.366.686-7.884.378.481 2.82 4.424 5.428 8.76l4.742 7.885H5.428c-4.967 0-5.428-.744-5.428-8.76zm11.729-.992c-4.176-7.472-4.896-10.424-3.076-12.616 4.18-5.036 6.96-3.099 14.033 9.778l6.915 12.591h-6.21c-5.203 0-7.095-1.582-11.662-9.753zm17.093-3.574c-8.885-15.19-9.292-17.264-3.944-20.126 3.33-1.781 5.115.13 13.142 14.07 5.109 8.872 9.604 16.863 9.99 17.757.385.895-2.02 1.626-5.346 1.626-5.204 0-7.132-1.856-13.842-13.327zm46.185 5.722c5.582-4.184 14.596-11.908 20.032-17.165 8.39-8.116 10.375-9.151 13.141-6.855 5.388 4.47 3.858 7.601-9.715 19.884-12.039 10.895-13.718 11.741-23.29 11.741H64.859l10.148-7.605zm30.75-2.933c5.796-5.796 10.659-10.29 10.807-9.987.148.303 1.51 2.173 3.025 4.156 2.334 3.055 2.06 4.58-1.79 9.987-3.851 5.41-5.919 6.382-13.562 6.382h-9.019l10.539-10.538zm16.795 6.934c3.405-3.404 3.805-3.404 7.21 0 3.404 3.404 3.203 3.604-3.605 3.604-6.809 0-7.009-.2-3.605-3.604zm11.843-3.381c-10.62-13.07-30.906-40.583-42.581-57.75-10.343-15.206-11.524-17.95-9.275-21.55 1.418-2.27 3.164-4.127 3.881-4.127.717 0 5.428 6.386 10.47 14.192 8.151 12.625 36.57 50.838 51.602 69.387l5.538 6.833-7.103-.152c-5.336-.114-8.453-1.813-12.532-6.833zm-82.42.036c-3.05-4.655-2.767-5.06 8.707-12.5 6.522-4.23 16.554-12.465 22.292-18.3 5.739-5.836 11.146-10.61 12.016-10.61.87 0 2.653 2 3.961 4.444 2.081 3.888 1.234 5.626-6.76 13.867-7.554 7.789-23.567 20.034-34.665 26.51-1.319.77-3.816-.765-5.55-3.411zm87.667-20.572c-21.542-27.734-32.088-42.2-41.59-57.054-7.304-11.418-7.428-11.94-3.874-16.33 3.646-4.502 3.777-4.38 18.349 17.172 8.072 11.938 21.587 30.551 30.033 41.362 14.047 17.978 15.303 20.385 14.721 28.198l-.636 8.542-17.003-21.89zm-94.953 8.01c-4.799-6.214-4.176-7.601 6.634-14.778 6.208-4.123 16.079-12.286 21.934-18.142 5.856-5.856 11.132-10.647 11.725-10.647.592 0 2.15 2.002 3.46 4.45 2.095 3.917 1.159 5.705-7.812 14.914-14.307 14.687-33.375 27.528-35.941 24.203zM0 125.916c0-5.454 1.335-7.695 6.354-10.66 12.653-7.474 39.283-29.97 59.167-49.982 17.24-17.351 20.831-20.068 23.729-17.95 3.015 2.205 2.095 4.091-7.87 16.138-15.826 19.13-44.051 45.291-62.924 58.321-8.794 6.071-16.544 11.039-17.223 11.039-.678 0-1.233-3.108-1.233-6.906zm258.492-.841c-1.16-3.256-9.411-25.285-18.336-48.954-14.381-38.137-16.824-43.171-21.473-44.247-2.885-.667-5.556-2.828-5.936-4.8-.613-3.182 1.605-3.588 19.592-3.588 18.183 0 20.21.38 19.582 3.68-.386 2.023-2.82 3.981-5.41 4.35-2.591.37-4.71 1.963-4.71 3.54 0 2.312 21.73 66.84 26.55 78.842.705 1.757 7.222-14.542 14.71-36.795 7.395-21.973 12.993-41.133 12.441-42.578-.552-1.446-2.926-2.629-5.275-2.629-2.87 0-4.271-1.38-4.271-4.205 0-3.858 1.401-4.205 16.975-4.205 14.869 0 16.89.445 16.284 3.587-.38 1.973-3.051 4.137-5.936 4.81-4.733 1.101-6.89 5.94-22.067 49.503l-16.82 48.282-6.895.663c-5.929.57-7.191-.166-9.005-5.256zm65.31 1.52c0-3.17 1.37-4.286 5.257-4.286h5.257V59.31l-5.257-1.319c-2.89-.725-5.256-2.636-5.256-4.245 0-2.173 3.233-2.926 12.565-2.926h12.565l.576 35.126.577 35.126 5.256 1.239c2.891.681 5.257 2.615 5.257 4.298 0 2.398-3.978 3.19-18.398 3.666-17.312.572-18.398.355-18.398-3.68zm45.094 1.838c-1.749-2.83.875-5.475 6.42-6.473 4.044-.729 4.228-2.638 4.77-49.44l.564-48.683-6.346-1.394c-3.49-.767-6.346-2.738-6.346-4.38 0-2.274 3.255-2.988 13.63-2.988h13.632l.561 53.091.562 53.091 4.731.672c3.04.432 4.73 2.123 4.73 4.731 0 3.69-1.614 4.06-17.747 4.06-10.513 0-18.324-.933-19.161-2.287zm45.32-1.69c0-2.694 1.653-4.377 4.73-4.814l4.731-.672.564-48.648.564-48.648-5.295-1.329c-2.912-.73-5.295-2.73-5.295-4.443 0-2.403 2.872-3.114 12.58-3.114h12.58l.561 52.998.562 52.997 5.257 1.24c2.89.682 5.256 2.616 5.256 4.299 0 2.398-3.978 3.19-18.398 3.666-17.106.565-18.398.317-18.398-3.533zm54.136-.196c-7.027-5.527-8.66-13.02-4.832-22.18 3.48-8.328 13.51-13.884 32.363-17.927 9.888-2.121 10.847-2.841 10.847-8.147 0-9.537-4.069-18.326-9.665-20.875-6.44-2.935-7.517-2.95-14.72-.212-4.36 1.657-5.15 2.767-3.291 4.626 7.406 7.406-1.339 18.907-9.846 12.949-9.764-6.84-1.65-20.048 14.96-24.357 12.207-3.166 25.197.49 31.288 8.806 5.087 6.945 8.095 23.853 8.095 45.494 0 17.507.024 17.585 5.432 17.585 7.85 0 5.278 4.86-3.782 7.147-9.77 2.466-14.265.565-14.265-6.03 0-6.065-2.436-6.834-6.423-2.03-8.002 9.641-27.01 12.35-36.161 5.151zm31.89-10.02c6.438-6.01 10.286-20.086 6.902-25.249-2.172-3.313-19.677 1.45-25.844 7.03-4.572 4.138-5.492 17.468-1.483 21.478 4.38 4.38 13.863 2.867 20.425-3.26zm53.166 11.67c-1.756-1.757-2.523-12.944-2.523-36.797V57.128h-7.359c-4.047 0-7.359-.845-7.359-1.878 0-2.278 5.192-4.43 10.685-4.43 3.363 0 4.033-1.533 4.033-9.217 0-8.38.524-9.317 5.77-10.32 8.004-1.53 8.949-.453 8.949 10.2v9.337h9.461c7.01 0 9.462.818 9.462 3.154 0 2.339-2.459 3.154-9.516 3.154h-9.517l.58 32.065.581 32.064 6.833.66c8.654.834 8.742 3.52.212 6.494-8.67 3.022-17.144 2.933-20.292-.215zm54.248-2.052c-21.101-14.173-20.886-56.038.369-71.753 7.934-5.866 24.042-6.893 33.123-2.112 10.58 5.57 15.412 13.419 16.525 26.838l.966 11.652H607.656v6.412c0 7.927 5.008 17.975 10.397 20.86 6.917 3.701 22.132 2.593 28.024-2.041 2.94-2.313 6.38-4.205 7.642-4.205 4.815 0 1.988 6.329-5.314 11.9-10.925 8.332-30.26 9.494-40.749 2.449zm35.744-50.19c0-14.455-13.226-23.15-25.347-16.662-5.11 2.734-10.397 12.808-10.397 19.808 0 5.325.117 5.36 17.872 5.36H643.4v-8.505zm22.137 52.757c-1.757-2.842.466-6.403 3.996-6.403 3.364 0 27.726-28.987 26.879-31.981-1.602-5.662-23.093-31.147-27.255-32.321-2.602-.735-4.73-2.652-4.73-4.261 0-2.24 3.7-2.926 15.77-2.926 15.842 0 19.45 2.03 12.658 7.127-2.637 1.98-1.808 4.033 5.447 13.498l8.558 11.163 8.16-10.936c8.06-10.804 8.806-14.544 2.9-14.544-1.667 0-3.03-1.42-3.03-3.154 0-2.48 2.92-3.154 13.666-3.154 10.461 0 13.667.706 13.667 3.012 0 1.657-1.763 3.572-3.919 4.256-2.155.684-7.997 6.189-12.98 12.232a3894.318 3894.318 0 0 1-11.755 14.2c-2.276 2.717-.59 5.886 10.916 20.501 7.484 9.508 15.01 17.288 16.725 17.288 1.714 0 3.116 1.891 3.116 4.205 0 3.831-1.402 4.205-15.77 4.205s-15.77-.374-15.77-4.205c0-2.336 1.402-4.205 3.155-4.205 4.924 0 3.822-2.983-5.426-14.682l-8.58-10.855-8.241 11.046c-4.533 6.075-8.241 11.71-8.241 12.523 0 .812 1.992 1.998 4.427 2.635 2.434.637 4.015 2.403 3.512 3.925-1.135 3.436-25.857 5.043-27.855 1.811zm-630.975-6.615c-.787-1.273.34-3.929 2.504-5.901s11.79-11.078 21.392-20.235c13.977-13.33 17.847-16.03 19.417-13.548 1.078 1.705 1.974 4.471 1.992 6.147.058 5.446-35.35 35.851-41.749 35.851-1.169 0-2.77-1.041-3.556-2.314zm105.032-20.056c-9.379-12.56-20.08-27.348-23.784-32.864L109.08 59.15l11.167 5.516c9.537 4.712 13.107 8.367 24.45 25.037 11.349 16.678 13.185 20.658 12.616 27.346l-.667 7.827-17.051-22.835zM.132 103.985c.123-7.422 1.18-8.72 15.657-19.249 8.54-6.209 24.532-19.743 35.54-30.074C69.11 37.974 71.833 36.137 75.706 38.21c4.29 2.296 4.254 2.468-2.214 10.634-11.084 13.995-57.201 54.382-69.793 61.12-3.234 1.731-3.681.982-3.566-5.98zM148.302 85.2c-5.345-8.05-6.732-11.435-4.307-10.504 1.968.755 5.856 1.945 8.64 2.643 4.385 1.101 5.061 2.504 5.061 10.505 0 5.078-.339 9.233-.753 9.233-.415 0-4.303-5.344-8.64-11.877zM0 81.71c0-6.003 1.709-8.522 11.039-16.268C17.11 60.4 29.905 48.71 39.472 39.462l17.394-16.815 4.61 4.61 4.61 4.61-9.389 9.68C46.387 52.177 9.531 83.65 3.68 86.82.508 88.54 0 87.834 0 81.711zm135.349-16.867C106.87 53.292 66.908 27.099 48.473 7.903L41.227.357h7.77c6.27 0 10.507 2.21 21.964 11.46 22.91 18.495 56.292 37 83.056 46.039 4.326 1.46 5.271 14.011 1.05 13.955-1.445-.02-10.318-3.155-19.718-6.968zM.014 57.758C.027 50.35 1.568 48.332 21.21 30.01l21.182-19.757 5.109 5.109 5.109 5.109-23.17 20.882C-.005 67.896-.003 67.894.015 57.758zm139.54-11.839c-19.763-8.016-40.533-19.968-59.748-34.38L66.302 1.408l9.06-.655c6.968-.503 10.6.508 15.735 4.38 11.704 8.827 35.624 21.842 51.355 27.943 14.667 5.688 15.244 6.175 15.244 12.879 0 3.831-.236 6.95-.525 6.931-.29-.02-8.217-3.155-17.617-6.968zM.049 31.697c.045-8.63.895-10.015 12.451-20.301C24.991.279 31.2-1.965 35.415 3.114c1.76 2.12-.973 5.901-11.833 16.377-7.766 7.492-16.25 15.387-18.851 17.544L0 40.96l.049-9.262zm335.468 1.1c-4.332-4.332-4.174-7.872.541-12.14 6.877-6.222 15.079-2.968 15.079 5.983 0 8.854-9.269 12.508-15.62 6.157zm-192.773-5.854c-14.27-5.87-39.598-19.51-43.846-23.613-5.983-5.777 13.568-3.569 26.793 3.027 6.617 3.3 16.525 7.686 22.018 9.747 8.718 3.272 9.987 4.513 9.987 9.77 0 7.207-.027 7.209-14.952 1.07zM0 9.114C0 1.914 2.95-.445 10.504.716c4.177.642 3.96 1.215-3 7.938L0 15.9V9.114zm139.824-2.372L127.208.718l15.244-.18 15.244-.18v6.307c0 7.758-1.77 7.766-17.872.077z" fill="#141414"/>
</svg>
